<?xml version="1.0" encoding="UTF-8" standalone="no"?>
<!DOCTYPE svg PUBLIC "-//W3C//DTD SVG 1.1//EN"
 "http://www.w3.org/Graphics/SVG/1.1/DTD/svg11.dtd">
<!-- Generated by graphviz version 2.38.0 (20140413.2041)
 -->
<!-- Title: pg_graph Pages: 1 -->
<svg width="850pt" height="1114pt"
 viewBox="0.00 0.00 850.00 1114.00" xmlns="http://www.w3.org/2000/svg" xmlns:xlink="http://www.w3.org/1999/xlink">
<g id="graph0" class="graph" transform="scale(1 1) rotate(0) translate(4 1110)">
<title>pg_graph</title>
<polygon fill="white" stroke="none" points="-4,4 -4,-1110 846,-1110 846,4 -4,4"/>
<g id="clust1" class="cluster"><title>clusterd1e3</title>
<polygon fill="none" stroke="black" points="507,-618 507,-732 703,-732 703,-618 507,-618"/>
<text text-anchor="middle" x="605" y="-716.8" font-family="Times,serif" font-size="14.00">atomic&#45;step_30_outside&#45;the&#45;loop</text>
</g>
<g id="clust2" class="cluster"><title>clusterd1e5</title>
<path fill="none" stroke="gray" d="M613,-626C613,-626 673,-626 673,-626 679,-626 685,-632 685,-638 685,-638 685,-689 685,-689 685,-695 679,-701 673,-701 673,-701 613,-701 613,-701 607,-701 601,-695 601,-689 601,-689 601,-638 601,-638 601,-632 607,-626 613,-626"/>
<text text-anchor="middle" x="643" y="-685.8" font-family="Times,serif" font-size="14.00" fill="gray">inputs</text>
</g>
<g id="clust3" class="cluster"><title>clusterd1e10</title>
<path fill="none" stroke="gray" d="M527,-626C527,-626 581,-626 581,-626 587,-626 593,-632 593,-638 593,-638 593,-689 593,-689 593,-695 587,-701 581,-701 581,-701 527,-701 527,-701 521,-701 515,-695 515,-689 515,-689 515,-638 515,-638 515,-632 521,-626 527,-626"/>
<text text-anchor="middle" x="554" y="-685.8" font-family="Times,serif" font-size="14.00" fill="gray">outputs</text>
</g>
<g id="clust4" class="cluster"><title>clusterd1e16</title>
<polygon fill="none" stroke="black" points="726,-984 726,-1098 834,-1098 834,-984 726,-984"/>
<text text-anchor="middle" x="780" y="-1082.8" font-family="Times,serif" font-size="14.00">source</text>
</g>
<g id="clust5" class="cluster"><title>clusterd1e18</title>
<path fill="none" stroke="gray" d="M746,-992C746,-992 814,-992 814,-992 820,-992 826,-998 826,-1004 826,-1004 826,-1055 826,-1055 826,-1061 820,-1067 814,-1067 814,-1067 746,-1067 746,-1067 740,-1067 734,-1061 734,-1055 734,-1055 734,-1004 734,-1004 734,-998 740,-992 746,-992"/>
<text text-anchor="middle" x="780" y="-1051.8" font-family="Times,serif" font-size="14.00" fill="gray">outputs</text>
</g>
<g id="clust6" class="cluster"><title>clusterd1e24</title>
<polygon fill="none" stroke="black" points="443,-740 443,-854 741,-854 741,-740 443,-740"/>
<text text-anchor="middle" x="592" y="-838.8" font-family="Times,serif" font-size="14.00">!fanout_11</text>
</g>
<g id="clust7" class="cluster"><title>clusterd1e26</title>
<path fill="none" stroke="gray" d="M661,-748C661,-748 721,-748 721,-748 727,-748 733,-754 733,-760 733,-760 733,-811 733,-811 733,-817 727,-823 721,-823 721,-823 661,-823 661,-823 655,-823 649,-817 649,-811 649,-811 649,-760 649,-760 649,-754 655,-748 661,-748"/>
<text text-anchor="middle" x="691" y="-807.8" font-family="Times,serif" font-size="14.00" fill="gray">inputs</text>
</g>
<g id="clust8" class="cluster"><title>clusterd1e31</title>
<path fill="none" stroke="gray" d="M463,-748C463,-748 629,-748 629,-748 635,-748 641,-754 641,-760 641,-760 641,-811 641,-811 641,-817 635,-823 629,-823 629,-823 463,-823 463,-823 457,-823 451,-817 451,-811 451,-811 451,-760 451,-760 451,-754 457,-748 463,-748"/>
<text text-anchor="middle" x="546" y="-807.8" font-family="Times,serif" font-size="14.00" fill="gray">outputs</text>
</g>
<g id="clust9" class="cluster"><title>clusterd1e39</title>
<polygon fill="none" stroke="black" points="201,-374 201,-488 445,-488 445,-374 201,-374"/>
<text text-anchor="middle" x="323" y="-472.8" font-family="Times,serif" font-size="14.00">atomic&#45;step_75_interleave</text>
</g>
<g id="clust10" class="cluster"><title>clusterd1e41</title>
<path fill="none" stroke="gray" d="M307,-382C307,-382 425,-382 425,-382 431,-382 437,-388 437,-394 437,-394 437,-445 437,-445 437,-451 431,-457 425,-457 425,-457 307,-457 307,-457 301,-457 295,-451 295,-445 295,-445 295,-394 295,-394 295,-388 301,-382 307,-382"/>
<text text-anchor="middle" x="366" y="-441.8" font-family="Times,serif" font-size="14.00" fill="gray">inputs</text>
</g>
<g id="clust11" class="cluster"><title>clusterd1e48</title>
<path fill="none" stroke="gray" d="M221,-382C221,-382 275,-382 275,-382 281,-382 287,-388 287,-394 287,-394 287,-445 287,-445 287,-451 281,-457 275,-457 275,-457 221,-457 221,-457 215,-457 209,-451 209,-445 209,-445 209,-394 209,-394 209,-388 215,-382 221,-382"/>
<text text-anchor="middle" x="248" y="-441.8" font-family="Times,serif" font-size="14.00" fill="gray">outputs</text>
</g>
<g id="clust12" class="cluster"><title>clusterd1e54</title>
<polygon fill="none" stroke="black" points="221,-496 221,-610 407,-610 407,-496 221,-496"/>
<text text-anchor="middle" x="314" y="-594.8" font-family="Times,serif" font-size="14.00">atomic&#45;step_68_first</text>
</g>
<g id="clust13" class="cluster"><title>clusterd1e56</title>
<path fill="none" stroke="gray" d="M327,-504C327,-504 387,-504 387,-504 393,-504 399,-510 399,-516 399,-516 399,-567 399,-567 399,-573 393,-579 387,-579 387,-579 327,-579 327,-579 321,-579 315,-573 315,-567 315,-567 315,-516 315,-516 315,-510 321,-504 327,-504"/>
<text text-anchor="middle" x="357" y="-563.8" font-family="Times,serif" font-size="14.00" fill="gray">inputs</text>
</g>
<g id="clust14" class="cluster"><title>clusterd1e61</title>
<path fill="none" stroke="gray" d="M241,-504C241,-504 295,-504 295,-504 301,-504 307,-510 307,-516 307,-516 307,-567 307,-567 307,-573 301,-579 295,-579 295,-579 241,-579 241,-579 235,-579 229,-573 229,-567 229,-567 229,-516 229,-516 229,-510 235,-504 241,-504"/>
<text text-anchor="middle" x="268" y="-563.8" font-family="Times,serif" font-size="14.00" fill="gray">outputs</text>
</g>
<g id="clust15" class="cluster"><title>clusterd1e68</title>
<polygon fill="none" stroke="black" points="8,-8 8,-122 124,-122 124,-8 8,-8"/>
<text text-anchor="middle" x="66" y="-106.8" font-family="Times,serif" font-size="14.00">result</text>
</g>
<g id="clust16" class="cluster"><title>clusterd1e70</title>
<path fill="none" stroke="gray" d="M28,-16C28,-16 104,-16 104,-16 110,-16 116,-22 116,-28 116,-28 116,-79 116,-79 116,-85 110,-91 104,-91 104,-91 28,-91 28,-91 22,-91 16,-85 16,-79 16,-79 16,-28 16,-28 16,-22 22,-16 28,-16"/>
<text text-anchor="middle" x="66" y="-75.8" font-family="Times,serif" font-size="14.00" fill="gray">inputs</text>
</g>
<g id="clust17" class="cluster"><title>clusterd1e76</title>
<polygon fill="none" stroke="black" points="416,-496 416,-610 602,-610 602,-496 416,-496"/>
<text text-anchor="middle" x="509" y="-594.8" font-family="Times,serif" font-size="14.00">i_cache_13</text>
</g>
<g id="clust18" class="cluster"><title>clusterd1e78</title>
<path fill="none" stroke="gray" d="M522,-504C522,-504 582,-504 582,-504 588,-504 594,-510 594,-516 594,-516 594,-567 594,-567 594,-573 588,-579 582,-579 582,-579 522,-579 522,-579 516,-579 510,-573 510,-567 510,-567 510,-516 510,-516 510,-510 516,-504 522,-504"/>
<text text-anchor="middle" x="552" y="-563.8" font-family="Times,serif" font-size="14.00" fill="gray">inputs</text>
</g>
<g id="clust19" class="cluster"><title>clusterd1e83</title>
<path fill="none" stroke="gray" d="M436,-504C436,-504 490,-504 490,-504 496,-504 502,-510 502,-516 502,-516 502,-567 502,-567 502,-573 496,-579 490,-579 490,-579 436,-579 436,-579 430,-579 424,-573 424,-567 424,-567 424,-516 424,-516 424,-510 430,-504 436,-504"/>
<text text-anchor="middle" x="463" y="-563.8" font-family="Times,serif" font-size="14.00" fill="gray">outputs</text>
</g>
<g id="clust20" class="cluster"><title>clusterd1e89</title>
<polygon fill="none" stroke="black" points="19,-130 19,-244 205,-244 205,-130 19,-130"/>
<text text-anchor="middle" x="112" y="-228.8" font-family="Times,serif" font-size="14.00">atomic&#45;step_109_end</text>
</g>
<g id="clust21" class="cluster"><title>clusterd1e91</title>
<path fill="none" stroke="gray" d="M125,-138C125,-138 185,-138 185,-138 191,-138 197,-144 197,-150 197,-150 197,-201 197,-201 197,-207 191,-213 185,-213 185,-213 125,-213 125,-213 119,-213 113,-207 113,-201 113,-201 113,-150 113,-150 113,-144 119,-138 125,-138"/>
<text text-anchor="middle" x="155" y="-197.8" font-family="Times,serif" font-size="14.00" fill="gray">inputs</text>
</g>
<g id="clust22" class="cluster"><title>clusterd1e96</title>
<path fill="none" stroke="gray" d="M39,-138C39,-138 93,-138 93,-138 99,-138 105,-144 105,-150 105,-150 105,-201 105,-201 105,-207 99,-213 93,-213 93,-213 39,-213 39,-213 33,-213 27,-207 27,-201 27,-201 27,-150 27,-150 27,-144 33,-138 39,-138"/>
<text text-anchor="middle" x="66" y="-197.8" font-family="Times,serif" font-size="14.00" fill="gray">outputs</text>
</g>
<g id="clust23" class="cluster"><title>clusterd1e102</title>
<polygon fill="none" stroke="black" points="644,-862 644,-976 830,-976 830,-862 644,-862"/>
<text text-anchor="middle" x="737" y="-960.8" font-family="Times,serif" font-size="14.00">atomic&#45;step_23_start</text>
</g>
<g id="clust24" class="cluster"><title>clusterd1e104</title>
<path fill="none" stroke="gray" d="M750,-870C750,-870 810,-870 810,-870 816,-870 822,-876 822,-882 822,-882 822,-933 822,-933 822,-939 816,-945 810,-945 810,-945 750,-945 750,-945 744,-945 738,-939 738,-933 738,-933 738,-882 738,-882 738,-876 744,-870 750,-870"/>
<text text-anchor="middle" x="780" y="-929.8" font-family="Times,serif" font-size="14.00" fill="gray">inputs</text>
</g>
<g id="clust25" class="cluster"><title>clusterd1e109</title>
<path fill="none" stroke="gray" d="M664,-870C664,-870 718,-870 718,-870 724,-870 730,-876 730,-882 730,-882 730,-933 730,-933 730,-939 724,-945 718,-945 718,-945 664,-945 664,-945 658,-945 652,-939 652,-933 652,-933 652,-882 652,-882 652,-876 658,-870 664,-870"/>
<text text-anchor="middle" x="691" y="-929.8" font-family="Times,serif" font-size="14.00" fill="gray">outputs</text>
</g>
<g id="clust26" class="cluster"><title>clusterd1e115</title>
<polygon fill="none" stroke="black" points="108,-252 108,-366 302,-366 302,-252 108,-252"/>
<text text-anchor="middle" x="205" y="-350.8" font-family="Times,serif" font-size="14.00">loop_end_6</text>
</g>
<g id="clust27" class="cluster"><title>clusterd1e117</title>
<path fill="none" stroke="gray" d="M214,-260C214,-260 282,-260 282,-260 288,-260 294,-266 294,-272 294,-272 294,-323 294,-323 294,-329 288,-335 282,-335 282,-335 214,-335 214,-335 208,-335 202,-329 202,-323 202,-323 202,-272 202,-272 202,-266 208,-260 214,-260"/>
<text text-anchor="middle" x="248" y="-319.8" font-family="Times,serif" font-size="14.00" fill="gray">inputs</text>
</g>
<g id="clust28" class="cluster"><title>clusterd1e122</title>
<path fill="none" stroke="gray" d="M128,-260C128,-260 182,-260 182,-260 188,-260 194,-266 194,-272 194,-272 194,-323 194,-323 194,-329 188,-335 182,-335 182,-335 128,-335 128,-335 122,-335 116,-329 116,-323 116,-323 116,-272 116,-272 116,-266 122,-260 128,-260"/>
<text text-anchor="middle" x="155" y="-319.8" font-family="Times,serif" font-size="14.00" fill="gray">outputs</text>
</g>
<g id="clust29" class="cluster"><title>clusterd1e128</title>
<polygon fill="none" stroke="black" points="303,-618 303,-732 499,-732 499,-618 303,-618"/>
<text text-anchor="middle" x="401" y="-716.8" font-family="Times,serif" font-size="14.00">loop_start_8</text>
</g>
<g id="clust30" class="cluster"><title>clusterd1e130</title>
<path fill="none" stroke="gray" d="M419,-626C419,-626 479,-626 479,-626 485,-626 491,-632 491,-638 491,-638 491,-689 491,-689 491,-695 485,-701 479,-701 479,-701 419,-701 419,-701 413,-701 407,-695 407,-689 407,-689 407,-638 407,-638 407,-632 413,-626 419,-626"/>
<text text-anchor="middle" x="449" y="-685.8" font-family="Times,serif" font-size="14.00" fill="gray">inputs</text>
</g>
<g id="clust31" class="cluster"><title>clusterd1e135</title>
<path fill="none" stroke="gray" d="M323,-626C323,-626 387,-626 387,-626 393,-626 399,-632 399,-638 399,-638 399,-689 399,-689 399,-695 393,-701 387,-701 387,-701 323,-701 323,-701 317,-701 311,-695 311,-689 311,-689 311,-638 311,-638 311,-632 317,-626 323,-626"/>
<text text-anchor="middle" x="355" y="-685.8" font-family="Times,serif" font-size="14.00" fill="gray">outputs</text>
</g>
<!-- d1e3.source -->
<g id="node1" class="node"><title>d1e3.source</title>
<ellipse fill="none" stroke="black" cx="643" cy="-652" rx="33.5952" ry="18"/>
<text text-anchor="middle" x="643" y="-648.3" font-family="Times,serif" font-size="14.00">source</text>
</g>
<!-- d1e3.result -->
<g id="node2" class="node"><title>d1e3.result</title>
<ellipse fill="none" stroke="black" cx="554" cy="-652" rx="30.5947" ry="18"/>
<text text-anchor="middle" x="554" y="-648.3" font-family="Times,serif" font-size="14.00">result</text>
</g>
<!-- d1e76.source -->
<g id="node13" class="node"><title>d1e76.source</title>
<ellipse fill="none" stroke="black" cx="552" cy="-530" rx="33.5952" ry="18"/>
<text text-anchor="middle" x="552" y="-526.3" font-family="Times,serif" font-size="14.00">source</text>
</g>
<!-- d1e3.result&#45;&gt;d1e76.source -->
<g id="edge7" class="edge"><title>d1e3.result&#45;&gt;d1e76.source</title>
<path fill="none" stroke="black" d="M553.713,-633.807C553.385,-614.114 552.843,-581.583 552.456,-558.39"/>
<polygon fill="black" stroke="black" points="555.952,-558.101 552.286,-548.161 548.953,-558.218 555.952,-558.101"/>
</g>
<!-- d1e16.result -->
<g id="node3" class="node"><title>d1e16.result</title>
<polygon fill="none" stroke="black" points="742.481,-1012.44 780,-1000 817.519,-1012.44 817.484,-1032.56 742.516,-1032.56 742.481,-1012.44"/>
<text text-anchor="middle" x="780" y="-1014.3" font-family="Times,serif" font-size="14.00">result</text>
</g>
<!-- d1e102.source -->
<g id="node17" class="node"><title>d1e102.source</title>
<ellipse fill="none" stroke="black" cx="780" cy="-896" rx="33.5952" ry="18"/>
<text text-anchor="middle" x="780" y="-892.3" font-family="Times,serif" font-size="14.00">source</text>
</g>
<!-- d1e16.result&#45;&gt;d1e102.source -->
<g id="edge9" class="edge"><title>d1e16.result&#45;&gt;d1e102.source</title>
<path fill="none" stroke="black" d="M780,-999.807C780,-980.114 780,-947.583 780,-924.39"/>
<polygon fill="black" stroke="black" points="783.5,-924.161 780,-914.161 776.5,-924.161 783.5,-924.161"/>
</g>
<!-- d1e24.source -->
<g id="node4" class="node"><title>d1e24.source</title>
<ellipse fill="none" stroke="black" cx="691" cy="-774" rx="33.5952" ry="18"/>
<text text-anchor="middle" x="691" y="-770.3" font-family="Times,serif" font-size="14.00">source</text>
</g>
<!-- d1e24.result_2 -->
<g id="node5" class="node"><title>d1e24.result_2</title>
<ellipse fill="none" stroke="black" cx="498" cy="-774" rx="38.9931" ry="18"/>
<text text-anchor="middle" x="498" y="-770.3" font-family="Times,serif" font-size="14.00">result_2</text>
</g>
<!-- d1e128.source -->
<g id="node21" class="node"><title>d1e128.source</title>
<ellipse fill="none" stroke="black" cx="449" cy="-652" rx="33.5952" ry="18"/>
<text text-anchor="middle" x="449" y="-648.3" font-family="Times,serif" font-size="14.00">source</text>
</g>
<!-- d1e24.result_2&#45;&gt;d1e128.source -->
<g id="edge11" class="edge"><title>d1e24.result_2&#45;&gt;d1e128.source</title>
<path fill="none" stroke="black" d="M491.083,-756.061C482.912,-736.05 469.225,-702.531 459.687,-679.172"/>
<polygon fill="black" stroke="black" points="462.902,-677.787 455.881,-669.852 456.421,-680.433 462.902,-677.787"/>
</g>
<!-- d1e24.result_1 -->
<g id="node6" class="node"><title>d1e24.result_1</title>
<ellipse fill="none" stroke="black" cx="594" cy="-774" rx="38.9931" ry="18"/>
<text text-anchor="middle" x="594" y="-770.3" font-family="Times,serif" font-size="14.00">result_1</text>
</g>
<!-- d1e24.result_1&#45;&gt;d1e3.source -->
<g id="edge1" class="edge"><title>d1e24.result_1&#45;&gt;d1e3.source</title>
<path fill="none" stroke="black" d="M600.917,-756.061C609.088,-736.05 622.775,-702.531 632.313,-679.172"/>
<polygon fill="black" stroke="black" points="635.579,-680.433 636.119,-669.852 629.098,-677.787 635.579,-680.433"/>
</g>
<!-- d1e39.left -->
<g id="node7" class="node"><title>d1e39.left</title>
<ellipse fill="none" stroke="black" cx="330" cy="-408" rx="27" ry="18"/>
<text text-anchor="middle" x="330" y="-404.3" font-family="Times,serif" font-size="14.00">left</text>
</g>
<!-- d1e39.right -->
<g id="node8" class="node"><title>d1e39.right</title>
<ellipse fill="none" stroke="black" cx="402" cy="-408" rx="27.0966" ry="18"/>
<text text-anchor="middle" x="402" y="-404.3" font-family="Times,serif" font-size="14.00">right</text>
</g>
<!-- d1e39.result -->
<g id="node9" class="node"><title>d1e39.result</title>
<ellipse fill="none" stroke="black" cx="248" cy="-408" rx="30.5947" ry="18"/>
<text text-anchor="middle" x="248" y="-404.3" font-family="Times,serif" font-size="14.00">result</text>
</g>
<!-- d1e115.I_result -->
<g id="node19" class="node"><title>d1e115.I_result</title>
<ellipse fill="none" stroke="black" cx="248" cy="-286" rx="37.8943" ry="18"/>
<text text-anchor="middle" x="248" y="-282.3" font-family="Times,serif" font-size="14.00">I_result</text>
</g>
<!-- d1e39.result&#45;&gt;d1e115.I_result -->
<g id="edge10" class="edge"><title>d1e39.result&#45;&gt;d1e115.I_result</title>
<path fill="none" stroke="black" d="M248,-389.807C248,-370.114 248,-337.583 248,-314.39"/>
<polygon fill="black" stroke="black" points="251.5,-314.161 248,-304.161 244.5,-314.161 251.5,-314.161"/>
</g>
<!-- d1e54.source -->
<g id="node10" class="node"><title>d1e54.source</title>
<ellipse fill="none" stroke="black" cx="357" cy="-530" rx="33.5952" ry="18"/>
<text text-anchor="middle" x="357" y="-526.3" font-family="Times,serif" font-size="14.00">source</text>
</g>
<!-- d1e54.result -->
<g id="node11" class="node"><title>d1e54.result</title>
<ellipse fill="none" stroke="black" cx="268" cy="-530" rx="30.5947" ry="18"/>
<text text-anchor="middle" x="268" y="-526.3" font-family="Times,serif" font-size="14.00">result</text>
</g>
<!-- d1e54.result&#45;&gt;d1e39.left -->
<g id="edge3" class="edge"><title>d1e54.result&#45;&gt;d1e39.left</title>
<path fill="none" stroke="black" d="M277.376,-512.748C281.628,-505.262 286.663,-496.232 291,-488 300.329,-470.294 310.309,-450.05 317.839,-434.488"/>
<polygon fill="black" stroke="black" points="320.997,-435.996 322.182,-425.468 314.69,-432.959 320.997,-435.996"/>
</g>
<!-- d1e68.source -->
<g id="node12" class="node"><title>d1e68.source</title>
<polygon fill="none" stroke="black" points="24.448,-36.4377 66,-24 107.552,-36.4377 107.513,-56.5623 24.4868,-56.5623 24.448,-36.4377"/>
<text text-anchor="middle" x="66" y="-38.3" font-family="Times,serif" font-size="14.00">source</text>
</g>
<!-- d1e76.result -->
<g id="node14" class="node"><title>d1e76.result</title>
<ellipse fill="none" stroke="black" cx="463" cy="-530" rx="30.5947" ry="18"/>
<text text-anchor="middle" x="463" y="-526.3" font-family="Times,serif" font-size="14.00">result</text>
</g>
<!-- d1e76.result&#45;&gt;d1e39.right -->
<g id="edge4" class="edge"><title>d1e76.result&#45;&gt;d1e39.right</title>
<path fill="none" stroke="black" d="M454.518,-512.315C444.275,-492.164 426.938,-458.058 415.003,-434.579"/>
<polygon fill="black" stroke="black" points="418.061,-432.872 410.41,-425.544 411.821,-436.044 418.061,-432.872"/>
</g>
<!-- d1e89.source -->
<g id="node15" class="node"><title>d1e89.source</title>
<ellipse fill="none" stroke="black" cx="155" cy="-164" rx="33.5952" ry="18"/>
<text text-anchor="middle" x="155" y="-160.3" font-family="Times,serif" font-size="14.00">source</text>
</g>
<!-- d1e89.result -->
<g id="node16" class="node"><title>d1e89.result</title>
<ellipse fill="none" stroke="black" cx="66" cy="-164" rx="30.5947" ry="18"/>
<text text-anchor="middle" x="66" y="-160.3" font-family="Times,serif" font-size="14.00">result</text>
</g>
<!-- d1e89.result&#45;&gt;d1e68.source -->
<g id="edge6" class="edge"><title>d1e89.result&#45;&gt;d1e68.source</title>
<path fill="none" stroke="black" d="M66,-145.807C66,-125.107 66,-90.2224 66,-66.908"/>
<polygon fill="black" stroke="black" points="69.5001,-66.8039 66,-56.8039 62.5001,-66.804 69.5001,-66.8039"/>
</g>
<!-- d1e102.result -->
<g id="node18" class="node"><title>d1e102.result</title>
<ellipse fill="none" stroke="black" cx="691" cy="-896" rx="30.5947" ry="18"/>
<text text-anchor="middle" x="691" y="-892.3" font-family="Times,serif" font-size="14.00">result</text>
</g>
<!-- d1e102.result&#45;&gt;d1e24.source -->
<g id="edge2" class="edge"><title>d1e102.result&#45;&gt;d1e24.source</title>
<path fill="none" stroke="black" d="M691,-877.807C691,-858.114 691,-825.583 691,-802.39"/>
<polygon fill="black" stroke="black" points="694.5,-802.161 691,-792.161 687.5,-802.161 694.5,-802.161"/>
</g>
<!-- d1e115.result -->
<g id="node20" class="node"><title>d1e115.result</title>
<ellipse fill="none" stroke="black" cx="155" cy="-286" rx="30.5947" ry="18"/>
<text text-anchor="middle" x="155" y="-282.3" font-family="Times,serif" font-size="14.00">result</text>
</g>
<!-- d1e115.result&#45;&gt;d1e89.source -->
<g id="edge8" class="edge"><title>d1e115.result&#45;&gt;d1e89.source</title>
<path fill="none" stroke="black" d="M155,-267.807C155,-248.114 155,-215.583 155,-192.39"/>
<polygon fill="black" stroke="black" points="158.5,-192.161 155,-182.161 151.5,-192.161 158.5,-192.161"/>
</g>
<!-- d1e128.current -->
<g id="node22" class="node"><title>d1e128.current</title>
<ellipse fill="none" stroke="black" cx="355" cy="-652" rx="35.9954" ry="18"/>
<text text-anchor="middle" x="355" y="-648.3" font-family="Times,serif" font-size="14.00">current</text>
</g>
<!-- d1e128.current&#45;&gt;d1e54.source -->
<g id="edge5" class="edge"><title>d1e128.current&#45;&gt;d1e54.source</title>
<path fill="none" stroke="black" d="M355.287,-633.807C355.615,-614.114 356.157,-581.583 356.544,-558.39"/>
<polygon fill="black" stroke="black" points="360.047,-558.218 356.714,-548.161 353.048,-558.101 360.047,-558.218"/>
</g>
</g>
</svg>
