<?xml version="1.0" encoding="UTF-8" standalone="no"?>
<!DOCTYPE svg PUBLIC "-//W3C//DTD SVG 1.1//EN"
 "http://www.w3.org/Graphics/SVG/1.1/DTD/svg11.dtd">
<!-- Generated by graphviz version 2.38.0 (20140413.2041)
 -->
<!-- Title: pg_graph Pages: 1 -->
<svg width="622pt" height="504pt"
 viewBox="0.00 0.00 622.00 504.00" xmlns="http://www.w3.org/2000/svg" xmlns:xlink="http://www.w3.org/1999/xlink">
<g id="graph0" class="graph" transform="scale(1 1) rotate(0) translate(4 500)">
<title>pg_graph</title>
<polygon fill="white" stroke="none" points="-4,4 -4,-500 618,-500 618,4 -4,4"/>
<g id="clust1" class="cluster"><title>clusterd1e3</title>
<polygon fill="none" stroke="black" points="38,-374 38,-488 149,-488 149,-374 38,-374"/>
<text text-anchor="middle" x="93.5" y="-472.8" font-family="Times,serif" font-size="14.00">IntegerLiteral_11</text>
</g>
<g id="clust2" class="cluster"><title>clusterd1e5</title>
<path fill="none" stroke="gray" d="M75,-382C75,-382 129,-382 129,-382 135,-382 141,-388 141,-394 141,-394 141,-445 141,-445 141,-451 135,-457 129,-457 129,-457 75,-457 75,-457 69,-457 63,-451 63,-445 63,-445 63,-394 63,-394 63,-388 69,-382 75,-382"/>
<text text-anchor="middle" x="102" y="-441.8" font-family="Times,serif" font-size="14.00" fill="gray">outputs</text>
</g>
<g id="clust3" class="cluster"><title>clusterd1e11</title>
<polygon fill="none" stroke="black" points="64,-8 64,-122 180,-122 180,-8 64,-8"/>
<text text-anchor="middle" x="122" y="-106.8" font-family="Times,serif" font-size="14.00">OUTPUT</text>
</g>
<g id="clust4" class="cluster"><title>clusterd1e13</title>
<path fill="none" stroke="gray" d="M84,-16C84,-16 160,-16 160,-16 166,-16 172,-22 172,-28 172,-28 172,-79 172,-79 172,-85 166,-91 160,-91 160,-91 84,-91 84,-91 78,-91 72,-85 72,-79 72,-79 72,-28 72,-28 72,-22 78,-16 84,-16"/>
<text text-anchor="middle" x="122" y="-75.8" font-family="Times,serif" font-size="14.00" fill="gray">inputs</text>
</g>
<g id="clust5" class="cluster"><title>clusterd1e19</title>
<polygon fill="none" stroke="black" points="157,-374 157,-488 261,-488 261,-374 157,-374"/>
<text text-anchor="middle" x="209" y="-472.8" font-family="Times,serif" font-size="14.00">IntegerLiteral_7</text>
</g>
<g id="clust6" class="cluster"><title>clusterd1e21</title>
<path fill="none" stroke="gray" d="M182,-382C182,-382 236,-382 236,-382 242,-382 248,-388 248,-394 248,-394 248,-445 248,-445 248,-451 242,-457 236,-457 236,-457 182,-457 182,-457 176,-457 170,-451 170,-445 170,-445 170,-394 170,-394 170,-388 176,-382 182,-382"/>
<text text-anchor="middle" x="209" y="-441.8" font-family="Times,serif" font-size="14.00" fill="gray">outputs</text>
</g>
<g id="clust7" class="cluster"><title>clusterd1e27</title>
<polygon fill="none" stroke="black" points="75,-130 75,-244 319,-244 319,-130 75,-130"/>
<text text-anchor="middle" x="197" y="-228.8" font-family="Times,serif" font-size="14.00">MultiplicativeExpr_0</text>
</g>
<g id="clust8" class="cluster"><title>clusterd1e29</title>
<path fill="none" stroke="gray" d="M181,-138C181,-138 299,-138 299,-138 305,-138 311,-144 311,-150 311,-150 311,-201 311,-201 311,-207 305,-213 299,-213 299,-213 181,-213 181,-213 175,-213 169,-207 169,-201 169,-201 169,-150 169,-150 169,-144 175,-138 181,-138"/>
<text text-anchor="middle" x="240" y="-197.8" font-family="Times,serif" font-size="14.00" fill="gray">inputs</text>
</g>
<g id="clust9" class="cluster"><title>clusterd1e36</title>
<path fill="none" stroke="gray" d="M95,-138C95,-138 149,-138 149,-138 155,-138 161,-144 161,-150 161,-150 161,-201 161,-201 161,-207 155,-213 149,-213 149,-213 95,-213 95,-213 89,-213 83,-207 83,-201 83,-201 83,-150 83,-150 83,-144 89,-138 95,-138"/>
<text text-anchor="middle" x="122" y="-197.8" font-family="Times,serif" font-size="14.00" fill="gray">outputs</text>
</g>
<g id="clust10" class="cluster"><title>clusterd1e42</title>
<polygon fill="none" stroke="black" points="332,-252 332,-366 576,-366 576,-252 332,-252"/>
<text text-anchor="middle" x="454" y="-350.8" font-family="Times,serif" font-size="14.00">AdditiveExpr_1</text>
</g>
<g id="clust11" class="cluster"><title>clusterd1e44</title>
<path fill="none" stroke="gray" d="M438,-260C438,-260 556,-260 556,-260 562,-260 568,-266 568,-272 568,-272 568,-323 568,-323 568,-329 562,-335 556,-335 556,-335 438,-335 438,-335 432,-335 426,-329 426,-323 426,-323 426,-272 426,-272 426,-266 432,-260 438,-260"/>
<text text-anchor="middle" x="497" y="-319.8" font-family="Times,serif" font-size="14.00" fill="gray">inputs</text>
</g>
<g id="clust12" class="cluster"><title>clusterd1e51</title>
<path fill="none" stroke="gray" d="M352,-260C352,-260 406,-260 406,-260 412,-260 418,-266 418,-272 418,-272 418,-323 418,-323 418,-329 412,-335 406,-335 406,-335 352,-335 352,-335 346,-335 340,-329 340,-323 340,-323 340,-272 340,-272 340,-266 346,-260 352,-260"/>
<text text-anchor="middle" x="379" y="-319.8" font-family="Times,serif" font-size="14.00" fill="gray">outputs</text>
</g>
<g id="clust13" class="cluster"><title>clusterd1e58</title>
<polygon fill="none" stroke="black" points="390,-374 390,-488 494,-488 494,-374 390,-374"/>
<text text-anchor="middle" x="442" y="-472.8" font-family="Times,serif" font-size="14.00">IntegerLiteral_2</text>
</g>
<g id="clust14" class="cluster"><title>clusterd1e60</title>
<path fill="none" stroke="gray" d="M420,-382C420,-382 474,-382 474,-382 480,-382 486,-388 486,-394 486,-394 486,-445 486,-445 486,-451 480,-457 474,-457 474,-457 420,-457 420,-457 414,-457 408,-451 408,-445 408,-445 408,-394 408,-394 408,-388 414,-382 420,-382"/>
<text text-anchor="middle" x="447" y="-441.8" font-family="Times,serif" font-size="14.00" fill="gray">outputs</text>
</g>
<g id="clust15" class="cluster"><title>clusterd1e66</title>
<polygon fill="none" stroke="black" points="8,-252 8,-366 324,-366 324,-252 8,-252"/>
<text text-anchor="middle" x="166" y="-350.8" font-family="Times,serif" font-size="14.00">AdditiveExpr_6</text>
</g>
<g id="clust16" class="cluster"><title>clusterd1e68</title>
<path fill="none" stroke="gray" d="M114,-260C114,-260 304,-260 304,-260 310,-260 316,-266 316,-272 316,-272 316,-323 316,-323 316,-329 310,-335 304,-335 304,-335 114,-335 114,-335 108,-335 102,-329 102,-323 102,-323 102,-272 102,-272 102,-266 108,-260 114,-260"/>
<text text-anchor="middle" x="209" y="-319.8" font-family="Times,serif" font-size="14.00" fill="gray">inputs</text>
</g>
<g id="clust17" class="cluster"><title>clusterd1e77</title>
<path fill="none" stroke="gray" d="M28,-260C28,-260 82,-260 82,-260 88,-260 94,-266 94,-272 94,-272 94,-323 94,-323 94,-329 88,-335 82,-335 82,-335 28,-335 28,-335 22,-335 16,-329 16,-323 16,-323 16,-272 16,-272 16,-266 22,-260 28,-260"/>
<text text-anchor="middle" x="55" y="-319.8" font-family="Times,serif" font-size="14.00" fill="gray">outputs</text>
</g>
<g id="clust18" class="cluster"><title>clusterd1e83</title>
<polygon fill="none" stroke="black" points="502,-374 502,-488 606,-488 606,-374 502,-374"/>
<text text-anchor="middle" x="554" y="-472.8" font-family="Times,serif" font-size="14.00">IntegerLiteral_4</text>
</g>
<g id="clust19" class="cluster"><title>clusterd1e85</title>
<path fill="none" stroke="gray" d="M522,-382C522,-382 576,-382 576,-382 582,-382 588,-388 588,-394 588,-394 588,-445 588,-445 588,-451 582,-457 576,-457 576,-457 522,-457 522,-457 516,-457 510,-451 510,-445 510,-445 510,-394 510,-394 510,-388 516,-382 522,-382"/>
<text text-anchor="middle" x="549" y="-441.8" font-family="Times,serif" font-size="14.00" fill="gray">outputs</text>
</g>
<g id="clust20" class="cluster"><title>clusterd1e91</title>
<polygon fill="none" stroke="black" points="269,-374 269,-488 373,-488 373,-374 269,-374"/>
<text text-anchor="middle" x="321" y="-472.8" font-family="Times,serif" font-size="14.00">IntegerLiteral_9</text>
</g>
<g id="clust21" class="cluster"><title>clusterd1e93</title>
<path fill="none" stroke="gray" d="M289,-382C289,-382 343,-382 343,-382 349,-382 355,-388 355,-394 355,-394 355,-445 355,-445 355,-451 349,-457 343,-457 343,-457 289,-457 289,-457 283,-457 277,-451 277,-445 277,-445 277,-394 277,-394 277,-388 283,-382 289,-382"/>
<text text-anchor="middle" x="316" y="-441.8" font-family="Times,serif" font-size="14.00" fill="gray">outputs</text>
</g>
<!-- d1e3.result -->
<g id="node1" class="node"><title>d1e3.result</title>
<ellipse fill="none" stroke="black" cx="102" cy="-408" rx="30.5947" ry="18"/>
<text text-anchor="middle" x="102" y="-404.3" font-family="Times,serif" font-size="14.00">result</text>
</g>
<!-- d1e66.s3 -->
<g id="node13" class="node"><title>d1e66.s3</title>
<ellipse fill="none" stroke="black" cx="137" cy="-286" rx="27" ry="18"/>
<text text-anchor="middle" x="137" y="-282.3" font-family="Times,serif" font-size="14.00">s3</text>
</g>
<!-- d1e3.result&#45;&gt;d1e66.s3 -->
<g id="edge8" class="edge"><title>d1e3.result&#45;&gt;d1e66.s3</title>
<path fill="none" stroke="black" d="M106.94,-390.061C112.751,-370.139 122.466,-336.83 129.275,-313.486"/>
<polygon fill="black" stroke="black" points="132.645,-314.432 132.085,-303.852 125.925,-312.472 132.645,-314.432"/>
</g>
<!-- d1e11.source -->
<g id="node2" class="node"><title>d1e11.source</title>
<polygon fill="none" stroke="black" points="80.448,-36.4377 122,-24 163.552,-36.4377 163.513,-56.5623 80.4868,-56.5623 80.448,-36.4377"/>
<text text-anchor="middle" x="122" y="-38.3" font-family="Times,serif" font-size="14.00">source</text>
</g>
<!-- d1e19.result -->
<g id="node3" class="node"><title>d1e19.result</title>
<ellipse fill="none" stroke="black" cx="209" cy="-408" rx="30.5947" ry="18"/>
<text text-anchor="middle" x="209" y="-404.3" font-family="Times,serif" font-size="14.00">result</text>
</g>
<!-- d1e66.s1 -->
<g id="node12" class="node"><title>d1e66.s1</title>
<ellipse fill="none" stroke="black" cx="209" cy="-286" rx="27" ry="18"/>
<text text-anchor="middle" x="209" y="-282.3" font-family="Times,serif" font-size="14.00">s1</text>
</g>
<!-- d1e19.result&#45;&gt;d1e66.s1 -->
<g id="edge7" class="edge"><title>d1e19.result&#45;&gt;d1e66.s1</title>
<path fill="none" stroke="black" d="M209,-389.807C209,-370.114 209,-337.583 209,-314.39"/>
<polygon fill="black" stroke="black" points="212.5,-314.161 209,-304.161 205.5,-314.161 212.5,-314.161"/>
</g>
<!-- d1e27.s2 -->
<g id="node4" class="node"><title>d1e27.s2</title>
<ellipse fill="none" stroke="black" cx="204" cy="-164" rx="27" ry="18"/>
<text text-anchor="middle" x="204" y="-160.3" font-family="Times,serif" font-size="14.00">s2</text>
</g>
<!-- d1e27.s1 -->
<g id="node5" class="node"><title>d1e27.s1</title>
<ellipse fill="none" stroke="black" cx="276" cy="-164" rx="27" ry="18"/>
<text text-anchor="middle" x="276" y="-160.3" font-family="Times,serif" font-size="14.00">s1</text>
</g>
<!-- d1e27.result -->
<g id="node6" class="node"><title>d1e27.result</title>
<ellipse fill="none" stroke="black" cx="122" cy="-164" rx="30.5947" ry="18"/>
<text text-anchor="middle" x="122" y="-160.3" font-family="Times,serif" font-size="14.00">result</text>
</g>
<!-- d1e27.result&#45;&gt;d1e11.source -->
<g id="edge1" class="edge"><title>d1e27.result&#45;&gt;d1e11.source</title>
<path fill="none" stroke="black" d="M122,-145.807C122,-125.107 122,-90.2224 122,-66.908"/>
<polygon fill="black" stroke="black" points="125.5,-66.8039 122,-56.8039 118.5,-66.804 125.5,-66.8039"/>
</g>
<!-- d1e42.s2 -->
<g id="node7" class="node"><title>d1e42.s2</title>
<ellipse fill="none" stroke="black" cx="533" cy="-286" rx="27" ry="18"/>
<text text-anchor="middle" x="533" y="-282.3" font-family="Times,serif" font-size="14.00">s2</text>
</g>
<!-- d1e42.s1 -->
<g id="node8" class="node"><title>d1e42.s1</title>
<ellipse fill="none" stroke="black" cx="461" cy="-286" rx="27" ry="18"/>
<text text-anchor="middle" x="461" y="-282.3" font-family="Times,serif" font-size="14.00">s1</text>
</g>
<!-- d1e42.result -->
<g id="node9" class="node"><title>d1e42.result</title>
<ellipse fill="none" stroke="black" cx="379" cy="-286" rx="30.5947" ry="18"/>
<text text-anchor="middle" x="379" y="-282.3" font-family="Times,serif" font-size="14.00">result</text>
</g>
<!-- d1e42.result&#45;&gt;d1e27.s1 -->
<g id="edge3" class="edge"><title>d1e42.result&#45;&gt;d1e27.s1</title>
<path fill="none" stroke="black" d="M365.535,-269.312C347.682,-248.512 316.05,-211.661 295.562,-187.791"/>
<polygon fill="black" stroke="black" points="297.99,-185.245 288.821,-179.937 292.678,-189.804 297.99,-185.245"/>
</g>
<!-- d1e58.result -->
<g id="node10" class="node"><title>d1e58.result</title>
<ellipse fill="none" stroke="black" cx="447" cy="-408" rx="30.5947" ry="18"/>
<text text-anchor="middle" x="447" y="-404.3" font-family="Times,serif" font-size="14.00">result</text>
</g>
<!-- d1e58.result&#45;&gt;d1e42.s1 -->
<g id="edge5" class="edge"><title>d1e58.result&#45;&gt;d1e42.s1</title>
<path fill="none" stroke="black" d="M449.006,-389.807C451.303,-370.114 455.099,-337.583 457.805,-314.39"/>
<polygon fill="black" stroke="black" points="461.315,-314.499 458.998,-304.161 454.363,-313.688 461.315,-314.499"/>
</g>
<!-- d1e66.s2 -->
<g id="node11" class="node"><title>d1e66.s2</title>
<ellipse fill="none" stroke="black" cx="281" cy="-286" rx="27" ry="18"/>
<text text-anchor="middle" x="281" y="-282.3" font-family="Times,serif" font-size="14.00">s2</text>
</g>
<!-- d1e66.result -->
<g id="node14" class="node"><title>d1e66.result</title>
<ellipse fill="none" stroke="black" cx="55" cy="-286" rx="30.5947" ry="18"/>
<text text-anchor="middle" x="55" y="-282.3" font-family="Times,serif" font-size="14.00">result</text>
</g>
<!-- d1e66.result&#45;&gt;d1e27.s2 -->
<g id="edge2" class="edge"><title>d1e66.result&#45;&gt;d1e27.s2</title>
<path fill="none" stroke="black" d="M70.049,-270.221C77.7764,-263.526 87.7158,-256.188 98,-252 125.775,-240.69 140.515,-261.316 165,-244 182.329,-231.745 192.331,-209.564 197.857,-191.818"/>
<polygon fill="black" stroke="black" points="201.283,-192.565 200.615,-181.991 194.543,-190.673 201.283,-192.565"/>
</g>
<!-- d1e83.result -->
<g id="node15" class="node"><title>d1e83.result</title>
<ellipse fill="none" stroke="black" cx="549" cy="-408" rx="30.5947" ry="18"/>
<text text-anchor="middle" x="549" y="-404.3" font-family="Times,serif" font-size="14.00">result</text>
</g>
<!-- d1e83.result&#45;&gt;d1e42.s2 -->
<g id="edge4" class="edge"><title>d1e83.result&#45;&gt;d1e42.s2</title>
<path fill="none" stroke="black" d="M546.708,-389.807C544.07,-370.025 539.705,-337.288 536.61,-314.076"/>
<polygon fill="black" stroke="black" points="540.079,-313.611 535.288,-304.161 533.141,-314.536 540.079,-313.611"/>
</g>
<!-- d1e91.result -->
<g id="node16" class="node"><title>d1e91.result</title>
<ellipse fill="none" stroke="black" cx="316" cy="-408" rx="30.5947" ry="18"/>
<text text-anchor="middle" x="316" y="-404.3" font-family="Times,serif" font-size="14.00">result</text>
</g>
<!-- d1e91.result&#45;&gt;d1e66.s2 -->
<g id="edge6" class="edge"><title>d1e91.result&#45;&gt;d1e66.s2</title>
<path fill="none" stroke="black" d="M311.06,-390.061C305.249,-370.139 295.534,-336.83 288.725,-313.486"/>
<polygon fill="black" stroke="black" points="292.075,-312.472 285.915,-303.852 285.355,-314.432 292.075,-312.472"/>
</g>
</g>
</svg>
