<?xml version="1.0" encoding="UTF-8" standalone="no"?>
<!DOCTYPE svg PUBLIC "-//W3C//DTD SVG 1.1//EN"
 "http://www.w3.org/Graphics/SVG/1.1/DTD/svg11.dtd">
<!-- Generated by graphviz version 2.38.0 (20140413.2041)
 -->
<!-- Title: pg_graph Pages: 1 -->
<svg width="299pt" height="344pt"
 viewBox="0.00 0.00 299.00 344.00" xmlns="http://www.w3.org/2000/svg" xmlns:xlink="http://www.w3.org/1999/xlink">
<g id="graph0" class="graph" transform="scale(1 1) rotate(0) translate(4 340)">
<title>pg_graph</title>
<polygon fill="white" stroke="none" points="-4,4 -4,-340 295,-340 295,4 -4,4"/>
<g id="clust1" class="cluster"><title>cluster_3</title>
<polygon fill="none" stroke="black" points="97,-178 97,-292 283,-292 283,-178 97,-178"/>
<text text-anchor="middle" x="190" y="-276.8" font-family="Times,serif" font-size="14.00">Do Something</text>
</g>
<g id="clust2" class="cluster"><title>clustersub_3i</title>
<path fill="none" stroke="gray" d="M203,-186C203,-186 263,-186 263,-186 269,-186 275,-192 275,-198 275,-198 275,-249 275,-249 275,-255 269,-261 263,-261 263,-261 203,-261 203,-261 197,-261 191,-255 191,-249 191,-249 191,-198 191,-198 191,-192 197,-186 203,-186"/>
<text text-anchor="middle" x="233" y="-245.8" font-family="Times,serif" font-size="14.00" fill="gray">inputs</text>
</g>
<g id="clust3" class="cluster"><title>clustersub_3o</title>
<path fill="none" stroke="gray" d="M117,-186C117,-186 171,-186 171,-186 177,-186 183,-192 183,-198 183,-198 183,-249 183,-249 183,-255 177,-261 171,-261 171,-261 117,-261 117,-261 111,-261 105,-255 105,-249 105,-249 105,-198 105,-198 105,-192 111,-186 117,-186"/>
<text text-anchor="middle" x="144" y="-245.8" font-family="Times,serif" font-size="14.00" fill="gray">outputs</text>
</g>
<g id="clust4" class="cluster"><title>cluster_4</title>
<polygon fill="none" stroke="black" points="8,-56 8,-170 194,-170 194,-56 8,-56"/>
<text text-anchor="middle" x="101" y="-154.8" font-family="Times,serif" font-size="14.00">Do Something Else</text>
</g>
<g id="clust5" class="cluster"><title>clustersub_4i</title>
<path fill="none" stroke="gray" d="M114,-64C114,-64 174,-64 174,-64 180,-64 186,-70 186,-76 186,-76 186,-127 186,-127 186,-133 180,-139 174,-139 174,-139 114,-139 114,-139 108,-139 102,-133 102,-127 102,-127 102,-76 102,-76 102,-70 108,-64 114,-64"/>
<text text-anchor="middle" x="144" y="-123.8" font-family="Times,serif" font-size="14.00" fill="gray">inputs</text>
</g>
<g id="clust6" class="cluster"><title>clustersub_4o</title>
<path fill="none" stroke="gray" d="M28,-64C28,-64 82,-64 82,-64 88,-64 94,-70 94,-76 94,-76 94,-127 94,-127 94,-133 88,-139 82,-139 82,-139 28,-139 28,-139 22,-139 16,-133 16,-127 16,-127 16,-76 16,-76 16,-70 22,-64 28,-64"/>
<text text-anchor="middle" x="55" y="-123.8" font-family="Times,serif" font-size="14.00" fill="gray">outputs</text>
</g>
<!-- input -->
<g id="node1" class="node"><title>input</title>
<polygon fill="none" stroke="black" points="197.803,-312.438 233,-300 268.197,-312.438 268.165,-332.562 197.835,-332.562 197.803,-312.438"/>
<text text-anchor="middle" x="233" y="-314.3" font-family="Times,serif" font-size="14.00">input</text>
</g>
<!-- source_3 -->
<g id="node2" class="node"><title>source_3</title>
<ellipse fill="none" stroke="black" cx="233" cy="-212" rx="33.5952" ry="18"/>
<text text-anchor="middle" x="233" y="-208.3" font-family="Times,serif" font-size="14.00">source</text>
</g>
<!-- input&#45;&gt;source_3 -->
<g id="edge1" class="edge"><title>input&#45;&gt;source_3</title>
<path fill="none" stroke="black" d="M233,-299.827C233,-283.643 233,-259.131 233,-240.273"/>
<polygon fill="black" stroke="black" points="236.5,-240.199 233,-230.199 229.5,-240.199 236.5,-240.199"/>
</g>
<!-- result_3 -->
<g id="node3" class="node"><title>result_3</title>
<ellipse fill="none" stroke="black" cx="144" cy="-212" rx="30.5947" ry="18"/>
<text text-anchor="middle" x="144" y="-208.3" font-family="Times,serif" font-size="14.00">result</text>
</g>
<!-- source_4 -->
<g id="node4" class="node"><title>source_4</title>
<ellipse fill="none" stroke="black" cx="144" cy="-90" rx="33.5952" ry="18"/>
<text text-anchor="middle" x="144" y="-86.3" font-family="Times,serif" font-size="14.00">source</text>
</g>
<!-- result_3&#45;&gt;source_4 -->
<g id="edge2" class="edge"><title>result_3&#45;&gt;source_4</title>
<path fill="none" stroke="black" d="M144,-193.807C144,-174.114 144,-141.583 144,-118.39"/>
<polygon fill="black" stroke="black" points="147.5,-118.161 144,-108.161 140.5,-118.161 147.5,-118.161"/>
</g>
<!-- result_4 -->
<g id="node5" class="node"><title>result_4</title>
<ellipse fill="none" stroke="black" cx="55" cy="-90" rx="30.5947" ry="18"/>
<text text-anchor="middle" x="55" y="-86.3" font-family="Times,serif" font-size="14.00">result</text>
</g>
<!-- output -->
<g id="node6" class="node"><title>output</title>
<polygon fill="none" stroke="black" points="14.0559,-12.4377 55,3.55271e-15 95.9441,-12.4377 95.9058,-32.5623 14.0942,-32.5623 14.0559,-12.4377"/>
<text text-anchor="middle" x="55" y="-14.3" font-family="Times,serif" font-size="14.00">output</text>
</g>
<!-- result_4&#45;&gt;output -->
<g id="edge3" class="edge"><title>result_4&#45;&gt;output</title>
<path fill="none" stroke="black" d="M55,-71.6966C55,-62.9895 55,-52.2995 55,-42.8287"/>
<polygon fill="black" stroke="black" points="58.5001,-42.8245 55,-32.8245 51.5001,-42.8246 58.5001,-42.8245"/>
</g>
</g>
</svg>
