<?xml version="1.0" encoding="UTF-8" standalone="no"?>
<!DOCTYPE svg PUBLIC "-//W3C//DTD SVG 1.1//EN"
 "http://www.w3.org/Graphics/SVG/1.1/DTD/svg11.dtd">
<!-- Generated by graphviz version 2.38.0 (20140413.2041)
 -->
<!-- Title: pg_graph Pages: 1 -->
<svg width="404pt" height="466pt"
 viewBox="0.00 0.00 404.00 466.00" xmlns="http://www.w3.org/2000/svg" xmlns:xlink="http://www.w3.org/1999/xlink">
<g id="graph0" class="graph" transform="scale(1 1) rotate(0) translate(4 462)">
<title>pg_graph</title>
<polygon fill="white" stroke="none" points="-4,4 -4,-462 400,-462 400,4 -4,4"/>
<g id="clust1" class="cluster"><title>cluster_fo</title>
<polygon fill="none" stroke="black" points="48,-300 48,-414 346,-414 346,-300 48,-300"/>
<text text-anchor="middle" x="197" y="-398.8" font-family="Times,serif" font-size="14.00">Fan Out</text>
</g>
<g id="clust2" class="cluster"><title>clustersub_fo</title>
<path fill="none" stroke="gray" d="M266,-308C266,-308 326,-308 326,-308 332,-308 338,-314 338,-320 338,-320 338,-371 338,-371 338,-377 332,-383 326,-383 326,-383 266,-383 266,-383 260,-383 254,-377 254,-371 254,-371 254,-320 254,-320 254,-314 260,-308 266,-308"/>
<text text-anchor="middle" x="296" y="-367.8" font-family="Times,serif" font-size="14.00" fill="gray">inputs</text>
</g>
<g id="clust3" class="cluster"><title>clustersub_3o</title>
<path fill="none" stroke="gray" d="M68,-308C68,-308 234,-308 234,-308 240,-308 246,-314 246,-320 246,-320 246,-371 246,-371 246,-377 240,-383 234,-383 234,-383 68,-383 68,-383 62,-383 56,-377 56,-371 56,-371 56,-320 56,-320 56,-314 62,-308 68,-308"/>
<text text-anchor="middle" x="151" y="-367.8" font-family="Times,serif" font-size="14.00" fill="gray">outputs</text>
</g>
<g id="clust4" class="cluster"><title>cluster_3</title>
<polygon fill="none" stroke="black" points="8,-178 8,-292 194,-292 194,-178 8,-178"/>
<text text-anchor="middle" x="101" y="-276.8" font-family="Times,serif" font-size="14.00">Do Something</text>
</g>
<g id="clust6" class="cluster"><title>clustersub_3o</title>
<path fill="none" stroke="gray" d="M120,-186C120,-186 174,-186 174,-186 180,-186 186,-192 186,-198 186,-198 186,-249 186,-249 186,-255 180,-261 174,-261 174,-261 120,-261 120,-261 114,-261 108,-255 108,-249 108,-249 108,-198 108,-198 108,-192 114,-186 120,-186"/>
<text text-anchor="middle" x="147" y="-245.8" font-family="Times,serif" font-size="14.00" fill="gray">outputs</text>
</g>
<g id="clust5" class="cluster"><title>clustersub_3i</title>
<path fill="none" stroke="gray" d="M28,-186C28,-186 88,-186 88,-186 94,-186 100,-192 100,-198 100,-198 100,-249 100,-249 100,-255 94,-261 88,-261 88,-261 28,-261 28,-261 22,-261 16,-255 16,-249 16,-249 16,-198 16,-198 16,-192 22,-186 28,-186"/>
<text text-anchor="middle" x="58" y="-245.8" font-family="Times,serif" font-size="14.00" fill="gray">inputs</text>
</g>
<g id="clust7" class="cluster"><title>cluster_4</title>
<polygon fill="none" stroke="black" points="202,-178 202,-292 388,-292 388,-178 202,-178"/>
<text text-anchor="middle" x="295" y="-276.8" font-family="Times,serif" font-size="14.00">Do Something Else</text>
</g>
<g id="clust8" class="cluster"><title>clustersub_4i</title>
<path fill="none" stroke="gray" d="M308,-186C308,-186 368,-186 368,-186 374,-186 380,-192 380,-198 380,-198 380,-249 380,-249 380,-255 374,-261 368,-261 368,-261 308,-261 308,-261 302,-261 296,-255 296,-249 296,-249 296,-198 296,-198 296,-192 302,-186 308,-186"/>
<text text-anchor="middle" x="338" y="-245.8" font-family="Times,serif" font-size="14.00" fill="gray">inputs</text>
</g>
<g id="clust9" class="cluster"><title>clustersub_4o</title>
<path fill="none" stroke="gray" d="M222,-186C222,-186 276,-186 276,-186 282,-186 288,-192 288,-198 288,-198 288,-249 288,-249 288,-255 282,-261 276,-261 276,-261 222,-261 222,-261 216,-261 210,-255 210,-249 210,-249 210,-198 210,-198 210,-192 216,-186 222,-186"/>
<text text-anchor="middle" x="249" y="-245.8" font-family="Times,serif" font-size="14.00" fill="gray">outputs</text>
</g>
<g id="clust10" class="cluster"><title>cluster_fi</title>
<polygon fill="none" stroke="black" points="9,-56 9,-170 307,-170 307,-56 9,-56"/>
<text text-anchor="middle" x="158" y="-154.8" font-family="Times,serif" font-size="14.00">Fan In</text>
</g>
<g id="clust11" class="cluster"><title>clustersub_fi</title>
<path fill="none" stroke="gray" d="M29,-64C29,-64 287,-64 287,-64 293,-64 299,-70 299,-76 299,-76 299,-127 299,-127 299,-133 293,-139 287,-139 287,-139 29,-139 29,-139 23,-139 17,-133 17,-127 17,-127 17,-76 17,-76 17,-70 23,-64 29,-64"/>
<text text-anchor="middle" x="158" y="-123.8" font-family="Times,serif" font-size="14.00" fill="gray">outputs</text>
</g>
<!-- input -->
<g id="node1" class="node"><title>input</title>
<polygon fill="none" stroke="black" points="260.803,-434.438 296,-422 331.197,-434.438 331.165,-454.562 260.835,-454.562 260.803,-434.438"/>
<text text-anchor="middle" x="296" y="-436.3" font-family="Times,serif" font-size="14.00">input</text>
</g>
<!-- source_fo -->
<g id="node2" class="node"><title>source_fo</title>
<ellipse fill="none" stroke="black" cx="296" cy="-334" rx="33.5952" ry="18"/>
<text text-anchor="middle" x="296" y="-330.3" font-family="Times,serif" font-size="14.00">source</text>
</g>
<!-- input&#45;&gt;source_fo -->
<g id="edge1" class="edge"><title>input&#45;&gt;source_fo</title>
<path fill="none" stroke="black" d="M296,-421.827C296,-405.643 296,-381.131 296,-362.273"/>
<polygon fill="black" stroke="black" points="299.5,-362.199 296,-352.199 292.5,-362.199 299.5,-362.199"/>
</g>
<!-- result_fo1 -->
<g id="node3" class="node"><title>result_fo1</title>
<ellipse fill="none" stroke="black" cx="103" cy="-334" rx="38.9931" ry="18"/>
<text text-anchor="middle" x="103" y="-330.3" font-family="Times,serif" font-size="14.00">result_1</text>
</g>
<!-- source_3 -->
<g id="node5" class="node"><title>source_3</title>
<ellipse fill="none" stroke="black" cx="58" cy="-212" rx="33.5952" ry="18"/>
<text text-anchor="middle" x="58" y="-208.3" font-family="Times,serif" font-size="14.00">source</text>
</g>
<!-- result_fo1&#45;&gt;source_3 -->
<g id="edge2" class="edge"><title>result_fo1&#45;&gt;source_3</title>
<path fill="none" stroke="black" d="M96.648,-316.061C89.1772,-296.139 76.6862,-262.83 67.9321,-239.486"/>
<polygon fill="black" stroke="black" points="71.1081,-237.987 64.3196,-229.852 64.5538,-240.445 71.1081,-237.987"/>
</g>
<!-- result_fo2 -->
<g id="node4" class="node"><title>result_fo2</title>
<ellipse fill="none" stroke="black" cx="199" cy="-334" rx="38.9931" ry="18"/>
<text text-anchor="middle" x="199" y="-330.3" font-family="Times,serif" font-size="14.00">result_2</text>
</g>
<!-- source_4 -->
<g id="node7" class="node"><title>source_4</title>
<ellipse fill="none" stroke="black" cx="338" cy="-212" rx="33.5952" ry="18"/>
<text text-anchor="middle" x="338" y="-208.3" font-family="Times,serif" font-size="14.00">source</text>
</g>
<!-- result_fo2&#45;&gt;source_4 -->
<g id="edge3" class="edge"><title>result_fo2&#45;&gt;source_4</title>
<path fill="none" stroke="black" d="M218.367,-317.933C227.507,-311.507 238.841,-304.473 250,-300 267.638,-292.929 276.489,-302.977 292,-292 309.869,-279.354 321.836,-257.402 329.074,-239.843"/>
<polygon fill="black" stroke="black" points="332.491,-240.706 332.798,-230.116 325.954,-238.203 332.491,-240.706"/>
</g>
<!-- result_3 -->
<g id="node6" class="node"><title>result_3</title>
<ellipse fill="none" stroke="black" cx="147" cy="-212" rx="30.5947" ry="18"/>
<text text-anchor="middle" x="147" y="-208.3" font-family="Times,serif" font-size="14.00">result</text>
</g>
<!-- source_fi1 -->
<g id="node9" class="node"><title>source_fi1</title>
<ellipse fill="none" stroke="black" cx="147" cy="-90" rx="42.4939" ry="18"/>
<text text-anchor="middle" x="147" y="-86.3" font-family="Times,serif" font-size="14.00">source_1</text>
</g>
<!-- result_3&#45;&gt;source_fi1 -->
<g id="edge4" class="edge"><title>result_3&#45;&gt;source_fi1</title>
<path fill="none" stroke="black" d="M147,-193.807C147,-174.114 147,-141.583 147,-118.39"/>
<polygon fill="black" stroke="black" points="150.5,-118.161 147,-108.161 143.5,-118.161 150.5,-118.161"/>
</g>
<!-- result_4 -->
<g id="node8" class="node"><title>result_4</title>
<ellipse fill="none" stroke="black" cx="249" cy="-212" rx="30.5947" ry="18"/>
<text text-anchor="middle" x="249" y="-208.3" font-family="Times,serif" font-size="14.00">result</text>
</g>
<!-- source_fi2 -->
<g id="node10" class="node"><title>source_fi2</title>
<ellipse fill="none" stroke="black" cx="249" cy="-90" rx="42.4939" ry="18"/>
<text text-anchor="middle" x="249" y="-86.3" font-family="Times,serif" font-size="14.00">source_2</text>
</g>
<!-- result_4&#45;&gt;source_fi2 -->
<g id="edge5" class="edge"><title>result_4&#45;&gt;source_fi2</title>
<path fill="none" stroke="black" d="M249,-193.807C249,-174.114 249,-141.583 249,-118.39"/>
<polygon fill="black" stroke="black" points="252.5,-118.161 249,-108.161 245.5,-118.161 252.5,-118.161"/>
</g>
<!-- result_fi -->
<g id="node11" class="node"><title>result_fi</title>
<ellipse fill="none" stroke="black" cx="56" cy="-90" rx="30.5947" ry="18"/>
<text text-anchor="middle" x="56" y="-86.3" font-family="Times,serif" font-size="14.00">result</text>
</g>
<!-- output -->
<g id="node12" class="node"><title>output</title>
<polygon fill="none" stroke="black" points="15.0559,-12.4377 56,3.55271e-15 96.9441,-12.4377 96.9058,-32.5623 15.0942,-32.5623 15.0559,-12.4377"/>
<text text-anchor="middle" x="56" y="-14.3" font-family="Times,serif" font-size="14.00">output</text>
</g>
<!-- result_fi&#45;&gt;output -->
<g id="edge6" class="edge"><title>result_fi&#45;&gt;output</title>
<path fill="none" stroke="black" d="M56,-71.6966C56,-62.9895 56,-52.2995 56,-42.8287"/>
<polygon fill="black" stroke="black" points="59.5001,-42.8245 56,-32.8245 52.5001,-42.8246 59.5001,-42.8245"/>
</g>
</g>
</svg>
