<?xml version="1.0" encoding="UTF-8" standalone="no"?>
<!DOCTYPE svg PUBLIC "-//W3C//DTD SVG 1.1//EN"
 "http://www.w3.org/Graphics/SVG/1.1/DTD/svg11.dtd">
<!-- Generated by graphviz version 2.38.0 (20140413.2041)
 -->
<!-- Title: pg_graph Pages: 1 -->
<svg width="404pt" height="222pt"
 viewBox="0.00 0.00 404.00 222.00" xmlns="http://www.w3.org/2000/svg" xmlns:xlink="http://www.w3.org/1999/xlink">
<g id="graph0" class="graph" transform="scale(1 1) rotate(0) translate(4 218)">
<title>pg_graph</title>
<polygon fill="white" stroke="none" points="-4,4 -4,-218 400,-218 400,4 -4,4"/>
<g id="clust1" class="cluster"><title>cluster_3</title>
<polygon fill="none" stroke="black" points="8,-56 8,-170 194,-170 194,-56 8,-56"/>
<text text-anchor="middle" x="101" y="-154.8" font-family="Times,serif" font-size="14.00">Do Something</text>
</g>
<g id="clust2" class="cluster"><title>clustersub_3i</title>
<path fill="none" stroke="gray" d="M114,-64C114,-64 174,-64 174,-64 180,-64 186,-70 186,-76 186,-76 186,-127 186,-127 186,-133 180,-139 174,-139 174,-139 114,-139 114,-139 108,-139 102,-133 102,-127 102,-127 102,-76 102,-76 102,-70 108,-64 114,-64"/>
<text text-anchor="middle" x="144" y="-123.8" font-family="Times,serif" font-size="14.00" fill="gray">inputs</text>
</g>
<g id="clust3" class="cluster"><title>clustersub_3o</title>
<path fill="none" stroke="gray" d="M28,-64C28,-64 82,-64 82,-64 88,-64 94,-70 94,-76 94,-76 94,-127 94,-127 94,-133 88,-139 82,-139 82,-139 28,-139 28,-139 22,-139 16,-133 16,-127 16,-127 16,-76 16,-76 16,-70 22,-64 28,-64"/>
<text text-anchor="middle" x="55" y="-123.8" font-family="Times,serif" font-size="14.00" fill="gray">outputs</text>
</g>
<g id="clust4" class="cluster"><title>cluster_4</title>
<polygon fill="none" stroke="black" points="202,-56 202,-170 388,-170 388,-56 202,-56"/>
<text text-anchor="middle" x="295" y="-154.8" font-family="Times,serif" font-size="14.00">Do Something Else</text>
</g>
<g id="clust5" class="cluster"><title>clustersub_4i</title>
<path fill="none" stroke="gray" d="M308,-64C308,-64 368,-64 368,-64 374,-64 380,-70 380,-76 380,-76 380,-127 380,-127 380,-133 374,-139 368,-139 368,-139 308,-139 308,-139 302,-139 296,-133 296,-127 296,-127 296,-76 296,-76 296,-70 302,-64 308,-64"/>
<text text-anchor="middle" x="338" y="-123.8" font-family="Times,serif" font-size="14.00" fill="gray">inputs</text>
</g>
<g id="clust6" class="cluster"><title>clustersub_4o</title>
<path fill="none" stroke="gray" d="M222,-64C222,-64 276,-64 276,-64 282,-64 288,-70 288,-76 288,-76 288,-127 288,-127 288,-133 282,-139 276,-139 276,-139 222,-139 222,-139 216,-139 210,-133 210,-127 210,-127 210,-76 210,-76 210,-70 216,-64 222,-64"/>
<text text-anchor="middle" x="249" y="-123.8" font-family="Times,serif" font-size="14.00" fill="gray">outputs</text>
</g>
<!-- input -->
<g id="node1" class="node"><title>input</title>
<polygon fill="none" stroke="black" points="205.803,-190.438 241,-178 276.197,-190.438 276.165,-210.562 205.835,-210.562 205.803,-190.438"/>
<text text-anchor="middle" x="241" y="-192.3" font-family="Times,serif" font-size="14.00">input</text>
</g>
<!-- source_3 -->
<g id="node2" class="node"><title>source_3</title>
<ellipse fill="none" stroke="black" cx="144" cy="-90" rx="33.5952" ry="18"/>
<text text-anchor="middle" x="144" y="-86.3" font-family="Times,serif" font-size="14.00">source</text>
</g>
<!-- input&#45;&gt;source_3 -->
<g id="edge1" class="edge"><title>input&#45;&gt;source_3</title>
<path fill="none" stroke="black" d="M223.506,-183.964C217.659,-179.905 211.29,-175.056 206,-170 188.773,-153.534 172.267,-132.129 160.623,-115.755"/>
<polygon fill="black" stroke="black" points="163.273,-113.436 154.68,-107.238 157.532,-117.442 163.273,-113.436"/>
</g>
<!-- source_4 -->
<g id="node4" class="node"><title>source_4</title>
<ellipse fill="none" stroke="black" cx="338" cy="-90" rx="33.5952" ry="18"/>
<text text-anchor="middle" x="338" y="-86.3" font-family="Times,serif" font-size="14.00">source</text>
</g>
<!-- input&#45;&gt;source_4 -->
<g id="edge2" class="edge"><title>input&#45;&gt;source_4</title>
<path fill="none" stroke="black" d="M265.389,-186.531C274.48,-182.528 284.422,-177.055 292,-170 307.828,-155.265 319.839,-133.835 327.612,-117.011"/>
<polygon fill="black" stroke="black" points="330.874,-118.287 331.695,-107.724 324.466,-115.469 330.874,-118.287"/>
</g>
<!-- result_3 -->
<g id="node3" class="node"><title>result_3</title>
<ellipse fill="none" stroke="black" cx="55" cy="-90" rx="30.5947" ry="18"/>
<text text-anchor="middle" x="55" y="-86.3" font-family="Times,serif" font-size="14.00">result</text>
</g>
<!-- output -->
<g id="node6" class="node"><title>output</title>
<polygon fill="none" stroke="black" points="111.056,-12.4377 152,3.55271e-15 192.944,-12.4377 192.906,-32.5623 111.094,-32.5623 111.056,-12.4377"/>
<text text-anchor="middle" x="152" y="-14.3" font-family="Times,serif" font-size="14.00">output</text>
</g>
<!-- result_3&#45;&gt;output -->
<g id="edge3" class="edge"><title>result_3&#45;&gt;output</title>
<path fill="none" stroke="black" d="M72.8298,-74.9739C80.5041,-69.0263 89.6215,-62.0787 98,-56 106.039,-50.1678 114.882,-44.0058 123.044,-38.4187"/>
<polygon fill="black" stroke="black" points="125.262,-41.1428 131.562,-32.6246 121.325,-35.3548 125.262,-41.1428"/>
</g>
<!-- result_4 -->
<g id="node5" class="node"><title>result_4</title>
<ellipse fill="none" stroke="black" cx="249" cy="-90" rx="30.5947" ry="18"/>
<text text-anchor="middle" x="249" y="-86.3" font-family="Times,serif" font-size="14.00">result</text>
</g>
<!-- result_4&#45;&gt;output -->
<g id="edge4" class="edge"><title>result_4&#45;&gt;output</title>
<path fill="none" stroke="black" d="M230.297,-75.5033C215.764,-65.0155 195.403,-50.3219 179.087,-38.5475"/>
<polygon fill="black" stroke="black" points="181.133,-35.7079 170.976,-32.6941 177.037,-41.3842 181.133,-35.7079"/>
</g>
</g>
</svg>
