<?xml version="1.0" encoding="UTF-8" standalone="no"?>
<!DOCTYPE svg PUBLIC "-//W3C//DTD SVG 1.1//EN"
 "http://www.w3.org/Graphics/SVG/1.1/DTD/svg11.dtd">
<!-- Generated by graphviz version 2.38.0 (20140413.2041)
 -->
<!-- Title: pg_graph Pages: 1 -->
<svg width="436pt" height="890pt"
 viewBox="0.00 0.00 435.96 890.29" xmlns="http://www.w3.org/2000/svg" xmlns:xlink="http://www.w3.org/1999/xlink">
<g id="graph0" class="graph" transform="scale(1 1) rotate(0) translate(4 886.295)">
<title>pg_graph</title>
<polygon fill="white" stroke="none" points="-4,4 -4,-886.295 431.963,-886.295 431.963,4 -4,4"/>
<g id="clust1" class="cluster"><title>cluster&#45;C9</title>
<polygon fill="none" stroke="gray" points="21.9148,-104.647 21.9148,-781.647 417.915,-781.647 417.915,-104.647 21.9148,-104.647"/>
<text text-anchor="middle" x="219.915" y="-766.447" font-family="Times,serif" font-size="14.00">PipelineStart</text>
<text text-anchor="middle" x="219.915" y="-751.447" font-family="Times,serif" font-size="14.00">PipelineStart&#45;9</text>
</g>
<g id="clust2" class="cluster"><title>cluster&#45;C9&#45;inputs</title>
<path fill="none" stroke="gray" d="M328.915,-660.647C328.915,-660.647 388.915,-660.647 388.915,-660.647 394.915,-660.647 400.915,-666.647 400.915,-672.647 400.915,-672.647 400.915,-723.647 400.915,-723.647 400.915,-729.647 394.915,-735.647 388.915,-735.647 388.915,-735.647 328.915,-735.647 328.915,-735.647 322.915,-735.647 316.915,-729.647 316.915,-723.647 316.915,-723.647 316.915,-672.647 316.915,-672.647 316.915,-666.647 322.915,-660.647 328.915,-660.647"/>
<text text-anchor="middle" x="358.915" y="-720.447" font-family="Times,serif" font-size="14.00" fill="gray">inputs</text>
</g>
<g id="clust3" class="cluster"><title>cluster&#45;N10</title>
<polygon fill="none" stroke="black" points="29.9148,-386.647 29.9148,-515.647 215.915,-515.647 215.915,-386.647 29.9148,-386.647"/>
<text text-anchor="middle" x="122.915" y="-500.447" font-family="Times,serif" font-size="14.00">Identity</text>
<text text-anchor="middle" x="122.915" y="-485.447" font-family="Times,serif" font-size="14.00">Do_Something&#45;10</text>
</g>
<g id="clust4" class="cluster"><title>cluster&#45;N10&#45;inputs</title>
<path fill="none" stroke="gray" d="M135.915,-394.647C135.915,-394.647 195.915,-394.647 195.915,-394.647 201.915,-394.647 207.915,-400.647 207.915,-406.647 207.915,-406.647 207.915,-457.647 207.915,-457.647 207.915,-463.647 201.915,-469.647 195.915,-469.647 195.915,-469.647 135.915,-469.647 135.915,-469.647 129.915,-469.647 123.915,-463.647 123.915,-457.647 123.915,-457.647 123.915,-406.647 123.915,-406.647 123.915,-400.647 129.915,-394.647 135.915,-394.647"/>
<text text-anchor="middle" x="165.915" y="-454.447" font-family="Times,serif" font-size="14.00" fill="gray">inputs</text>
</g>
<g id="clust5" class="cluster"><title>cluster&#45;N10&#45;outputs</title>
<path fill="none" stroke="gray" d="M49.9148,-394.647C49.9148,-394.647 103.915,-394.647 103.915,-394.647 109.915,-394.647 115.915,-400.647 115.915,-406.647 115.915,-406.647 115.915,-457.647 115.915,-457.647 115.915,-463.647 109.915,-469.647 103.915,-469.647 103.915,-469.647 49.9148,-469.647 49.9148,-469.647 43.9148,-469.647 37.9148,-463.647 37.9148,-457.647 37.9148,-457.647 37.9148,-406.647 37.9148,-406.647 37.9148,-400.647 43.9148,-394.647 49.9148,-394.647"/>
<text text-anchor="middle" x="76.9148" y="-454.447" font-family="Times,serif" font-size="14.00" fill="gray">outputs</text>
</g>
<g id="clust6" class="cluster"><title>cluster&#45;N11</title>
<polygon fill="none" stroke="black" points="223.915,-386.647 223.915,-515.647 409.915,-515.647 409.915,-386.647 223.915,-386.647"/>
<text text-anchor="middle" x="316.915" y="-500.447" font-family="Times,serif" font-size="14.00">Identity</text>
<text text-anchor="middle" x="316.915" y="-485.447" font-family="Times,serif" font-size="14.00">Do_Something_Else&#45;11</text>
</g>
<g id="clust7" class="cluster"><title>cluster&#45;N11&#45;inputs</title>
<path fill="none" stroke="gray" d="M329.915,-394.647C329.915,-394.647 389.915,-394.647 389.915,-394.647 395.915,-394.647 401.915,-400.647 401.915,-406.647 401.915,-406.647 401.915,-457.647 401.915,-457.647 401.915,-463.647 395.915,-469.647 389.915,-469.647 389.915,-469.647 329.915,-469.647 329.915,-469.647 323.915,-469.647 317.915,-463.647 317.915,-457.647 317.915,-457.647 317.915,-406.647 317.915,-406.647 317.915,-400.647 323.915,-394.647 329.915,-394.647"/>
<text text-anchor="middle" x="359.915" y="-454.447" font-family="Times,serif" font-size="14.00" fill="gray">inputs</text>
</g>
<g id="clust8" class="cluster"><title>cluster&#45;N11&#45;outputs</title>
<path fill="none" stroke="gray" d="M243.915,-394.647C243.915,-394.647 297.915,-394.647 297.915,-394.647 303.915,-394.647 309.915,-400.647 309.915,-406.647 309.915,-406.647 309.915,-457.647 309.915,-457.647 309.915,-463.647 303.915,-469.647 297.915,-469.647 297.915,-469.647 243.915,-469.647 243.915,-469.647 237.915,-469.647 231.915,-463.647 231.915,-457.647 231.915,-457.647 231.915,-406.647 231.915,-406.647 231.915,-400.647 237.915,-394.647 243.915,-394.647"/>
<text text-anchor="middle" x="270.915" y="-454.447" font-family="Times,serif" font-size="14.00" fill="gray">outputs</text>
</g>
<g id="clust9" class="cluster"><title>cluster&#45;N14</title>
<polygon fill="none" stroke="black" points="110.915,-523.647 110.915,-652.647 408.915,-652.647 408.915,-523.647 110.915,-523.647"/>
<text text-anchor="middle" x="259.915" y="-637.447" font-family="Times,serif" font-size="14.00">Splitter</text>
<text text-anchor="middle" x="259.915" y="-622.447" font-family="Times,serif" font-size="14.00">Splitter&#45;14</text>
</g>
<g id="clust10" class="cluster"><title>cluster&#45;N14&#45;inputs</title>
<path fill="none" stroke="gray" d="M328.915,-531.647C328.915,-531.647 388.915,-531.647 388.915,-531.647 394.915,-531.647 400.915,-537.647 400.915,-543.647 400.915,-543.647 400.915,-594.647 400.915,-594.647 400.915,-600.647 394.915,-606.647 388.915,-606.647 388.915,-606.647 328.915,-606.647 328.915,-606.647 322.915,-606.647 316.915,-600.647 316.915,-594.647 316.915,-594.647 316.915,-543.647 316.915,-543.647 316.915,-537.647 322.915,-531.647 328.915,-531.647"/>
<text text-anchor="middle" x="358.915" y="-591.447" font-family="Times,serif" font-size="14.00" fill="gray">inputs</text>
</g>
<g id="clust11" class="cluster"><title>cluster&#45;N14&#45;outputs</title>
<path fill="none" stroke="gray" d="M130.915,-531.647C130.915,-531.647 296.915,-531.647 296.915,-531.647 302.915,-531.647 308.915,-537.647 308.915,-543.647 308.915,-543.647 308.915,-594.647 308.915,-594.647 308.915,-600.647 302.915,-606.647 296.915,-606.647 296.915,-606.647 130.915,-606.647 130.915,-606.647 124.915,-606.647 118.915,-600.647 118.915,-594.647 118.915,-594.647 118.915,-543.647 118.915,-543.647 118.915,-537.647 124.915,-531.647 130.915,-531.647"/>
<text text-anchor="middle" x="213.915" y="-591.447" font-family="Times,serif" font-size="14.00" fill="gray">outputs</text>
</g>
<g id="clust12" class="cluster"><title>cluster&#45;N15</title>
<polygon fill="none" stroke="black" points="29.9148,-249.647 29.9148,-378.647 333.915,-378.647 333.915,-249.647 29.9148,-249.647"/>
<text text-anchor="middle" x="181.915" y="-363.447" font-family="Times,serif" font-size="14.00">Joiner</text>
<text text-anchor="middle" x="181.915" y="-348.447" font-family="Times,serif" font-size="14.00">Joiner&#45;15</text>
</g>
<g id="clust13" class="cluster"><title>cluster&#45;N15&#45;inputs</title>
<path fill="none" stroke="gray" d="M135.915,-257.647C135.915,-257.647 313.915,-257.647 313.915,-257.647 319.915,-257.647 325.915,-263.647 325.915,-269.647 325.915,-269.647 325.915,-320.647 325.915,-320.647 325.915,-326.647 319.915,-332.647 313.915,-332.647 313.915,-332.647 135.915,-332.647 135.915,-332.647 129.915,-332.647 123.915,-326.647 123.915,-320.647 123.915,-320.647 123.915,-269.647 123.915,-269.647 123.915,-263.647 129.915,-257.647 135.915,-257.647"/>
<text text-anchor="middle" x="224.915" y="-317.447" font-family="Times,serif" font-size="14.00" fill="gray">inputs</text>
</g>
<g id="clust14" class="cluster"><title>cluster&#45;N15&#45;outputs</title>
<path fill="none" stroke="gray" d="M49.9148,-257.647C49.9148,-257.647 103.915,-257.647 103.915,-257.647 109.915,-257.647 115.915,-263.647 115.915,-269.647 115.915,-269.647 115.915,-320.647 115.915,-320.647 115.915,-326.647 109.915,-332.647 103.915,-332.647 103.915,-332.647 49.9148,-332.647 49.9148,-332.647 43.9148,-332.647 37.9148,-326.647 37.9148,-320.647 37.9148,-320.647 37.9148,-269.647 37.9148,-269.647 37.9148,-263.647 43.9148,-257.647 49.9148,-257.647"/>
<text text-anchor="middle" x="76.9148" y="-317.447" font-family="Times,serif" font-size="14.00" fill="gray">outputs</text>
</g>
<g id="clust15" class="cluster"><title>cluster&#45;E8</title>
<polygon fill="none" stroke="black" points="29.9148,-112.647 29.9148,-241.647 132.915,-241.647 132.915,-112.647 29.9148,-112.647"/>
<text text-anchor="middle" x="81.4148" y="-226.447" font-family="Times,serif" font-size="14.00">ContainerEnd</text>
<text text-anchor="middle" x="81.4148" y="-211.447" font-family="Times,serif" font-size="14.00">ContainerEnd&#45;8</text>
</g>
<g id="clust16" class="cluster"><title>cluster&#45;E8&#45;inputs</title>
<path fill="none" stroke="gray" d="M49.9148,-120.647C49.9148,-120.647 103.915,-120.647 103.915,-120.647 109.915,-120.647 115.915,-126.647 115.915,-132.647 115.915,-132.647 115.915,-183.647 115.915,-183.647 115.915,-189.647 109.915,-195.647 103.915,-195.647 103.915,-195.647 49.9148,-195.647 49.9148,-195.647 43.9148,-195.647 37.9148,-189.647 37.9148,-183.647 37.9148,-183.647 37.9148,-132.647 37.9148,-132.647 37.9148,-126.647 43.9148,-120.647 49.9148,-120.647"/>
<text text-anchor="middle" x="76.9148" y="-180.447" font-family="Times,serif" font-size="14.00" fill="gray">inputs</text>
</g>
<!-- C9&#45;I&#45;source -->
<g id="node1" class="node"><title>C9&#45;I&#45;source</title>
<ellipse fill="none" stroke="black" cx="358.915" cy="-686.647" rx="33.5952" ry="18"/>
<text text-anchor="middle" x="358.915" y="-682.947" font-family="Times,serif" font-size="14.00">source</text>
</g>
<!-- N14&#45;I&#45;source -->
<g id="node6" class="node"><title>N14&#45;I&#45;source</title>
<ellipse fill="none" stroke="black" cx="358.915" cy="-557.647" rx="33.5952" ry="18"/>
<text text-anchor="middle" x="358.915" y="-553.947" font-family="Times,serif" font-size="14.00">source</text>
</g>
<!-- C9&#45;I&#45;source&#45;&gt;N14&#45;I&#45;source -->
<g id="edge1" class="edge"><title>C9&#45;I&#45;source&#45;&gt;N14&#45;I&#45;source</title>
<path fill="none" stroke="black" d="M358.915,-668.52C358.915,-647.405 358.915,-611.251 358.915,-586.211"/>
<polygon fill="black" stroke="black" points="362.415,-585.909 358.915,-575.909 355.415,-585.909 362.415,-585.909"/>
</g>
<!-- N10&#45;I&#45;source -->
<g id="node2" class="node"><title>N10&#45;I&#45;source</title>
<ellipse fill="none" stroke="black" cx="165.915" cy="-420.647" rx="33.5952" ry="18"/>
<text text-anchor="middle" x="165.915" y="-416.947" font-family="Times,serif" font-size="14.00">source</text>
</g>
<!-- N10&#45;O&#45;result -->
<g id="node3" class="node"><title>N10&#45;O&#45;result</title>
<ellipse fill="none" stroke="black" cx="76.9148" cy="-420.647" rx="30.5947" ry="18"/>
<text text-anchor="middle" x="76.9148" y="-416.947" font-family="Times,serif" font-size="14.00">result</text>
</g>
<!-- N15&#45;I&#45;source_1 -->
<g id="node9" class="node"><title>N15&#45;I&#45;source_1</title>
<ellipse fill="none" stroke="black" cx="173.915" cy="-283.647" rx="42.4939" ry="18"/>
<text text-anchor="middle" x="173.915" y="-279.947" font-family="Times,serif" font-size="14.00">source_1</text>
</g>
<!-- N10&#45;O&#45;result&#45;&gt;N15&#45;I&#45;source_1 -->
<g id="edge3" class="edge"><title>N10&#45;O&#45;result&#45;&gt;N15&#45;I&#45;source_1</title>
<path fill="none" stroke="black" d="M93.9584,-405.473C102.348,-398.003 112.274,-388.385 119.915,-378.647 136.689,-357.27 151.718,-330.108 161.635,-310.485"/>
<polygon fill="black" stroke="black" points="164.776,-312.03 166.078,-301.515 158.503,-308.922 164.776,-312.03"/>
</g>
<!-- N11&#45;I&#45;source -->
<g id="node4" class="node"><title>N11&#45;I&#45;source</title>
<ellipse fill="none" stroke="black" cx="359.915" cy="-420.647" rx="33.5952" ry="18"/>
<text text-anchor="middle" x="359.915" y="-416.947" font-family="Times,serif" font-size="14.00">source</text>
</g>
<!-- N11&#45;O&#45;result -->
<g id="node5" class="node"><title>N11&#45;O&#45;result</title>
<ellipse fill="none" stroke="black" cx="270.915" cy="-420.647" rx="30.5947" ry="18"/>
<text text-anchor="middle" x="270.915" y="-416.947" font-family="Times,serif" font-size="14.00">result</text>
</g>
<!-- N15&#45;I&#45;source_2 -->
<g id="node10" class="node"><title>N15&#45;I&#45;source_2</title>
<ellipse fill="none" stroke="black" cx="275.915" cy="-283.647" rx="42.4939" ry="18"/>
<text text-anchor="middle" x="275.915" y="-279.947" font-family="Times,serif" font-size="14.00">source_2</text>
</g>
<!-- N11&#45;O&#45;result&#45;&gt;N15&#45;I&#45;source_2 -->
<g id="edge4" class="edge"><title>N11&#45;O&#45;result&#45;&gt;N15&#45;I&#45;source_2</title>
<path fill="none" stroke="black" d="M271.548,-402.55C272.392,-379.75 273.897,-339.126 274.901,-312.033"/>
<polygon fill="black" stroke="black" points="278.398,-312.156 275.271,-302.033 271.403,-311.896 278.398,-312.156"/>
</g>
<!-- N14&#45;O&#45;result_1 -->
<g id="node7" class="node"><title>N14&#45;O&#45;result_1</title>
<ellipse fill="none" stroke="black" cx="165.915" cy="-557.647" rx="38.9931" ry="18"/>
<text text-anchor="middle" x="165.915" y="-553.947" font-family="Times,serif" font-size="14.00">result_1</text>
</g>
<!-- N14&#45;O&#45;result_1&#45;&gt;N10&#45;I&#45;source -->
<g id="edge5" class="edge"><title>N14&#45;O&#45;result_1&#45;&gt;N10&#45;I&#45;source</title>
<path fill="none" stroke="black" d="M165.915,-539.55C165.915,-516.75 165.915,-476.126 165.915,-449.033"/>
<polygon fill="black" stroke="black" points="169.415,-449.033 165.915,-439.033 162.415,-449.033 169.415,-449.033"/>
</g>
<!-- N14&#45;O&#45;result_2 -->
<g id="node8" class="node"><title>N14&#45;O&#45;result_2</title>
<ellipse fill="none" stroke="black" cx="261.915" cy="-557.647" rx="38.9931" ry="18"/>
<text text-anchor="middle" x="261.915" y="-553.947" font-family="Times,serif" font-size="14.00">result_2</text>
</g>
<!-- N14&#45;O&#45;result_2&#45;&gt;N11&#45;I&#45;source -->
<g id="edge6" class="edge"><title>N14&#45;O&#45;result_2&#45;&gt;N11&#45;I&#45;source</title>
<path fill="none" stroke="black" d="M284.045,-542.583C294.076,-535.415 305.539,-526.024 313.915,-515.647 330.413,-495.208 342.948,-467.875 350.734,-447.953"/>
<polygon fill="black" stroke="black" points="354.023,-449.151 354.27,-438.559 347.471,-446.685 354.023,-449.151"/>
</g>
<!-- N15&#45;O&#45;result -->
<g id="node11" class="node"><title>N15&#45;O&#45;result</title>
<ellipse fill="none" stroke="black" cx="76.9148" cy="-283.647" rx="30.5947" ry="18"/>
<text text-anchor="middle" x="76.9148" y="-279.947" font-family="Times,serif" font-size="14.00">result</text>
</g>
<!-- E8&#45;I&#45;result -->
<g id="node12" class="node"><title>E8&#45;I&#45;result</title>
<ellipse fill="none" stroke="black" cx="76.9148" cy="-146.647" rx="30.5947" ry="18"/>
<text text-anchor="middle" x="76.9148" y="-142.947" font-family="Times,serif" font-size="14.00">result</text>
</g>
<!-- N15&#45;O&#45;result&#45;&gt;E8&#45;I&#45;result -->
<g id="edge7" class="edge"><title>N15&#45;O&#45;result&#45;&gt;E8&#45;I&#45;result</title>
<path fill="none" stroke="black" d="M76.9148,-265.55C76.9148,-242.75 76.9148,-202.126 76.9148,-175.033"/>
<polygon fill="black" stroke="black" points="80.4149,-175.033 76.9148,-165.033 73.4149,-175.033 80.4149,-175.033"/>
</g>
<!-- N13&#45;I&#45;source -->
<g id="node14" class="node"><title>N13&#45;I&#45;source</title>
<polygon fill="none" stroke="black" points="153.745,-60.5842 76.9148,-92.4718 0.0850855,-60.5842 0.156797,-8.98913 153.673,-8.98913 153.745,-60.5842"/>
<text text-anchor="middle" x="76.9148" y="-57.6237" font-family="Times,serif" font-size="14.00">GraphOutput</text>
<text text-anchor="middle" x="76.9148" y="-42.6237" font-family="Times,serif" font-size="14.00">result&#45;13</text>
<text text-anchor="middle" x="76.9148" y="-27.6237" font-family="Times,serif" font-size="14.00">source</text>
</g>
<!-- E8&#45;I&#45;result&#45;&gt;N13&#45;I&#45;source -->
<g id="edge2" class="edge"><title>E8&#45;I&#45;result&#45;&gt;N13&#45;I&#45;source</title>
<path fill="none" stroke="black" d="M76.9148,-128.521C76.9148,-121.167 76.9148,-112.119 76.9148,-102.763"/>
<polygon fill="black" stroke="black" points="80.4149,-102.555 76.9148,-92.5555 73.4149,-102.556 80.4149,-102.555"/>
</g>
<!-- N12&#45;O&#45;result -->
<g id="node13" class="node"><title>N12&#45;O&#45;result</title>
<polygon fill="none" stroke="black" points="289.818,-821.711 358.915,-789.823 428.012,-821.711 427.947,-873.306 289.882,-873.306 289.818,-821.711"/>
<text text-anchor="middle" x="358.915" y="-847.271" font-family="Times,serif" font-size="14.00">GraphInput</text>
<text text-anchor="middle" x="358.915" y="-832.271" font-family="Times,serif" font-size="14.00">source&#45;12</text>
<text text-anchor="middle" x="358.915" y="-817.271" font-family="Times,serif" font-size="14.00">source</text>
</g>
<!-- N12&#45;O&#45;result&#45;&gt;C9&#45;I&#45;source -->
<g id="edge8" class="edge"><title>N12&#45;O&#45;result&#45;&gt;C9&#45;I&#45;source</title>
<path fill="none" stroke="black" d="M358.915,-789.567C358.915,-765.088 358.915,-735.703 358.915,-714.788"/>
<polygon fill="black" stroke="black" points="362.415,-714.693 358.915,-704.693 355.415,-714.694 362.415,-714.693"/>
</g>
</g>
</svg>
