<?xml version="1.0" encoding="UTF-8" standalone="no"?>
<!DOCTYPE svg PUBLIC "-//W3C//DTD SVG 1.1//EN"
 "http://www.w3.org/Graphics/SVG/1.1/DTD/svg11.dtd">
<!-- Generated by graphviz version 2.38.0 (20140413.2041)
 -->
<!-- Title: pg_graph Pages: 1 -->
<svg width="384pt" height="504pt"
 viewBox="0.00 0.00 384.00 504.00" xmlns="http://www.w3.org/2000/svg" xmlns:xlink="http://www.w3.org/1999/xlink">
<g id="graph0" class="graph" transform="scale(1 1) rotate(0) translate(4 500)">
<title>pg_graph</title>
<polygon fill="white" stroke="none" points="-4,4 -4,-500 380,-500 380,4 -4,4"/>
<g id="clust1" class="cluster"><title>clusterd1e3</title>
<polygon fill="none" stroke="black" points="32,-8 32,-122 148,-122 148,-8 32,-8"/>
<text text-anchor="middle" x="90" y="-106.8" font-family="Times,serif" font-size="14.00">OUTPUT</text>
</g>
<g id="clust2" class="cluster"><title>clusterd1e5</title>
<path fill="none" stroke="gray" d="M52,-16C52,-16 128,-16 128,-16 134,-16 140,-22 140,-28 140,-28 140,-79 140,-79 140,-85 134,-91 128,-91 128,-91 52,-91 52,-91 46,-91 40,-85 40,-79 40,-79 40,-28 40,-28 40,-22 46,-16 52,-16"/>
<text text-anchor="middle" x="90" y="-75.8" font-family="Times,serif" font-size="14.00" fill="gray">inputs</text>
</g>
<g id="clust3" class="cluster"><title>clusterd1e11</title>
<polygon fill="none" stroke="black" points="43,-130 43,-244 287,-244 287,-130 43,-130"/>
<text text-anchor="middle" x="165" y="-228.8" font-family="Times,serif" font-size="14.00">MultiplicativeExpr_0</text>
</g>
<g id="clust4" class="cluster"><title>clusterd1e13</title>
<path fill="none" stroke="gray" d="M149,-138C149,-138 267,-138 267,-138 273,-138 279,-144 279,-150 279,-150 279,-201 279,-201 279,-207 273,-213 267,-213 267,-213 149,-213 149,-213 143,-213 137,-207 137,-201 137,-201 137,-150 137,-150 137,-144 143,-138 149,-138"/>
<text text-anchor="middle" x="208" y="-197.8" font-family="Times,serif" font-size="14.00" fill="gray">inputs</text>
</g>
<g id="clust5" class="cluster"><title>clusterd1e20</title>
<path fill="none" stroke="gray" d="M63,-138C63,-138 117,-138 117,-138 123,-138 129,-144 129,-150 129,-150 129,-201 129,-201 129,-207 123,-213 117,-213 117,-213 63,-213 63,-213 57,-213 51,-207 51,-201 51,-201 51,-150 51,-150 51,-144 57,-138 63,-138"/>
<text text-anchor="middle" x="90" y="-197.8" font-family="Times,serif" font-size="14.00" fill="gray">outputs</text>
</g>
<g id="clust6" class="cluster"><title>clusterd1e26</title>
<polygon fill="none" stroke="black" points="8,-252 8,-366 252,-366 252,-252 8,-252"/>
<text text-anchor="middle" x="130" y="-350.8" font-family="Times,serif" font-size="14.00">AdditiveExpr_1</text>
</g>
<g id="clust7" class="cluster"><title>clusterd1e28</title>
<path fill="none" stroke="gray" d="M114,-260C114,-260 232,-260 232,-260 238,-260 244,-266 244,-272 244,-272 244,-323 244,-323 244,-329 238,-335 232,-335 232,-335 114,-335 114,-335 108,-335 102,-329 102,-323 102,-323 102,-272 102,-272 102,-266 108,-260 114,-260"/>
<text text-anchor="middle" x="173" y="-319.8" font-family="Times,serif" font-size="14.00" fill="gray">inputs</text>
</g>
<g id="clust8" class="cluster"><title>clusterd1e35</title>
<path fill="none" stroke="gray" d="M28,-260C28,-260 82,-260 82,-260 88,-260 94,-266 94,-272 94,-272 94,-323 94,-323 94,-329 88,-335 82,-335 82,-335 28,-335 28,-335 22,-335 16,-329 16,-323 16,-323 16,-272 16,-272 16,-266 22,-260 28,-260"/>
<text text-anchor="middle" x="55" y="-319.8" font-family="Times,serif" font-size="14.00" fill="gray">outputs</text>
</g>
<g id="clust9" class="cluster"><title>clusterd1e41</title>
<polygon fill="none" stroke="black" points="65,-374 65,-488 169,-488 169,-374 65,-374"/>
<text text-anchor="middle" x="117" y="-472.8" font-family="Times,serif" font-size="14.00">IntegerLiteral_2</text>
</g>
<g id="clust10" class="cluster"><title>clusterd1e43</title>
<path fill="none" stroke="gray" d="M95,-382C95,-382 149,-382 149,-382 155,-382 161,-388 161,-394 161,-394 161,-445 161,-445 161,-451 155,-457 149,-457 149,-457 95,-457 95,-457 89,-457 83,-451 83,-445 83,-445 83,-394 83,-394 83,-388 89,-382 95,-382"/>
<text text-anchor="middle" x="122" y="-441.8" font-family="Times,serif" font-size="14.00" fill="gray">outputs</text>
</g>
<g id="clust11" class="cluster"><title>clusterd1e49</title>
<polygon fill="none" stroke="black" points="260,-252 260,-366 368,-366 368,-252 260,-252"/>
<text text-anchor="middle" x="314" y="-350.8" font-family="Times,serif" font-size="14.00">VarRef_6</text>
</g>
<g id="clust12" class="cluster"><title>clusterd1e51</title>
<path fill="none" stroke="gray" d="M280,-260C280,-260 348,-260 348,-260 354,-260 360,-266 360,-272 360,-272 360,-323 360,-323 360,-329 354,-335 348,-335 348,-335 280,-335 280,-335 274,-335 268,-329 268,-323 268,-323 268,-272 268,-272 268,-266 274,-260 280,-260"/>
<text text-anchor="middle" x="314" y="-319.8" font-family="Times,serif" font-size="14.00" fill="gray">outputs</text>
</g>
<g id="clust13" class="cluster"><title>clusterd1e58</title>
<polygon fill="none" stroke="black" points="177,-374 177,-488 281,-488 281,-374 177,-374"/>
<text text-anchor="middle" x="229" y="-472.8" font-family="Times,serif" font-size="14.00">IntegerLiteral_4</text>
</g>
<g id="clust14" class="cluster"><title>clusterd1e60</title>
<path fill="none" stroke="gray" d="M197,-382C197,-382 251,-382 251,-382 257,-382 263,-388 263,-394 263,-394 263,-445 263,-445 263,-451 257,-457 251,-457 251,-457 197,-457 197,-457 191,-457 185,-451 185,-445 185,-445 185,-394 185,-394 185,-388 191,-382 197,-382"/>
<text text-anchor="middle" x="224" y="-441.8" font-family="Times,serif" font-size="14.00" fill="gray">outputs</text>
</g>
<!-- d1e3.source -->
<g id="node1" class="node"><title>d1e3.source</title>
<polygon fill="none" stroke="black" points="48.448,-36.4377 90,-24 131.552,-36.4377 131.513,-56.5623 48.4868,-56.5623 48.448,-36.4377"/>
<text text-anchor="middle" x="90" y="-38.3" font-family="Times,serif" font-size="14.00">source</text>
</g>
<!-- d1e11.s2 -->
<g id="node2" class="node"><title>d1e11.s2</title>
<ellipse fill="none" stroke="black" cx="244" cy="-164" rx="27" ry="18"/>
<text text-anchor="middle" x="244" y="-160.3" font-family="Times,serif" font-size="14.00">s2</text>
</g>
<!-- d1e11.s1 -->
<g id="node3" class="node"><title>d1e11.s1</title>
<ellipse fill="none" stroke="black" cx="172" cy="-164" rx="27" ry="18"/>
<text text-anchor="middle" x="172" y="-160.3" font-family="Times,serif" font-size="14.00">s1</text>
</g>
<!-- d1e11.result -->
<g id="node4" class="node"><title>d1e11.result</title>
<ellipse fill="none" stroke="black" cx="90" cy="-164" rx="30.5947" ry="18"/>
<text text-anchor="middle" x="90" y="-160.3" font-family="Times,serif" font-size="14.00">result</text>
</g>
<!-- d1e11.result&#45;&gt;d1e3.source -->
<g id="edge1" class="edge"><title>d1e11.result&#45;&gt;d1e3.source</title>
<path fill="none" stroke="black" d="M90,-145.807C90,-125.107 90,-90.2224 90,-66.908"/>
<polygon fill="black" stroke="black" points="93.5001,-66.8039 90,-56.8039 86.5001,-66.804 93.5001,-66.8039"/>
</g>
<!-- d1e26.s2 -->
<g id="node5" class="node"><title>d1e26.s2</title>
<ellipse fill="none" stroke="black" cx="209" cy="-286" rx="27" ry="18"/>
<text text-anchor="middle" x="209" y="-282.3" font-family="Times,serif" font-size="14.00">s2</text>
</g>
<!-- d1e26.s1 -->
<g id="node6" class="node"><title>d1e26.s1</title>
<ellipse fill="none" stroke="black" cx="137" cy="-286" rx="27" ry="18"/>
<text text-anchor="middle" x="137" y="-282.3" font-family="Times,serif" font-size="14.00">s1</text>
</g>
<!-- d1e26.result -->
<g id="node7" class="node"><title>d1e26.result</title>
<ellipse fill="none" stroke="black" cx="55" cy="-286" rx="30.5947" ry="18"/>
<text text-anchor="middle" x="55" y="-282.3" font-family="Times,serif" font-size="14.00">result</text>
</g>
<!-- d1e26.result&#45;&gt;d1e11.s1 -->
<g id="edge3" class="edge"><title>d1e26.result&#45;&gt;d1e11.s1</title>
<path fill="none" stroke="black" d="M70.652,-270.355C78.3672,-263.857 88.1221,-256.646 98,-252 112.439,-245.209 120.478,-253.89 133,-244 149.556,-230.924 159.593,-209.006 165.33,-191.569"/>
<polygon fill="black" stroke="black" points="168.703,-192.505 168.227,-181.921 161.999,-190.491 168.703,-192.505"/>
</g>
<!-- d1e41.result -->
<g id="node8" class="node"><title>d1e41.result</title>
<ellipse fill="none" stroke="black" cx="122" cy="-408" rx="30.5947" ry="18"/>
<text text-anchor="middle" x="122" y="-404.3" font-family="Times,serif" font-size="14.00">result</text>
</g>
<!-- d1e41.result&#45;&gt;d1e26.s1 -->
<g id="edge5" class="edge"><title>d1e41.result&#45;&gt;d1e26.s1</title>
<path fill="none" stroke="black" d="M124.149,-389.807C126.611,-370.114 130.677,-337.583 133.576,-314.39"/>
<polygon fill="black" stroke="black" points="137.087,-314.518 134.855,-304.161 130.141,-313.65 137.087,-314.518"/>
</g>
<!-- d1e49.result -->
<g id="node9" class="node"><title>d1e49.result</title>
<polygon fill="none" stroke="black" points="276.481,-280.438 314,-268 351.519,-280.438 351.484,-300.562 276.516,-300.562 276.481,-280.438"/>
<text text-anchor="middle" x="314" y="-282.3" font-family="Times,serif" font-size="14.00">result</text>
</g>
<!-- d1e49.result&#45;&gt;d1e11.s2 -->
<g id="edge2" class="edge"><title>d1e49.result&#45;&gt;d1e11.s2</title>
<path fill="none" stroke="black" d="M305.417,-270.286C293.698,-250.196 272.533,-213.914 258.373,-189.639"/>
<polygon fill="black" stroke="black" points="261.385,-187.856 253.323,-180.982 255.338,-191.383 261.385,-187.856"/>
</g>
<!-- d1e58.result -->
<g id="node10" class="node"><title>d1e58.result</title>
<ellipse fill="none" stroke="black" cx="224" cy="-408" rx="30.5947" ry="18"/>
<text text-anchor="middle" x="224" y="-404.3" font-family="Times,serif" font-size="14.00">result</text>
</g>
<!-- d1e58.result&#45;&gt;d1e26.s2 -->
<g id="edge4" class="edge"><title>d1e58.result&#45;&gt;d1e26.s2</title>
<path fill="none" stroke="black" d="M221.851,-389.807C219.389,-370.114 215.323,-337.583 212.424,-314.39"/>
<polygon fill="black" stroke="black" points="215.859,-313.65 211.145,-304.161 208.913,-314.518 215.859,-313.65"/>
</g>
</g>
</svg>
