<?xml version="1.0" encoding="UTF-8" standalone="no"?>
<!DOCTYPE svg PUBLIC "-//W3C//DTD SVG 1.1//EN"
 "http://www.w3.org/Graphics/SVG/1.1/DTD/svg11.dtd">
<!-- Generated by graphviz version 2.38.0 (20140413.2041)
 -->
<!-- Title: pg_graph Pages: 1 -->
<svg width="908pt" height="748pt"
 viewBox="0.00 0.00 908.00 748.00" xmlns="http://www.w3.org/2000/svg" xmlns:xlink="http://www.w3.org/1999/xlink">
<g id="graph0" class="graph" transform="scale(1 1) rotate(0) translate(4 744)">
<title>pg_graph</title>
<polygon fill="white" stroke="none" points="-4,4 -4,-744 904,-744 904,4 -4,4"/>
<g id="clust1" class="cluster"><title>clusterd1e3</title>
<polygon fill="none" stroke="black" points="8,-8 8,-122 124,-122 124,-8 8,-8"/>
<text text-anchor="middle" x="66" y="-106.8" font-family="Times,serif" font-size="14.00">OUTPUT</text>
</g>
<g id="clust2" class="cluster"><title>clusterd1e5</title>
<path fill="none" stroke="gray" d="M28,-16C28,-16 104,-16 104,-16 110,-16 116,-22 116,-28 116,-28 116,-79 116,-79 116,-85 110,-91 104,-91 104,-91 28,-91 28,-91 22,-91 16,-85 16,-79 16,-79 16,-28 16,-28 16,-22 22,-16 28,-16"/>
<text text-anchor="middle" x="66" y="-75.8" font-family="Times,serif" font-size="14.00" fill="gray">inputs</text>
</g>
<g id="clust3" class="cluster"><title>clusterd1e11</title>
<polygon fill="none" stroke="black" points="669,-618 669,-732 773,-732 773,-618 669,-618"/>
<text text-anchor="middle" x="721" y="-716.8" font-family="Times,serif" font-size="14.00">IntegerLiteral_9</text>
</g>
<g id="clust4" class="cluster"><title>clusterd1e13</title>
<path fill="none" stroke="gray" d="M699,-626C699,-626 753,-626 753,-626 759,-626 765,-632 765,-638 765,-638 765,-689 765,-689 765,-695 759,-701 753,-701 753,-701 699,-701 699,-701 693,-701 687,-695 687,-689 687,-689 687,-638 687,-638 687,-632 693,-626 699,-626"/>
<text text-anchor="middle" x="726" y="-685.8" font-family="Times,serif" font-size="14.00" fill="gray">outputs</text>
</g>
<g id="clust5" class="cluster"><title>clusterd1e19</title>
<polygon fill="none" stroke="black" points="112,-252 112,-366 298,-366 298,-252 112,-252"/>
<text text-anchor="middle" x="205" y="-350.8" font-family="Times,serif" font-size="14.00">QName_1</text>
</g>
<g id="clust6" class="cluster"><title>clusterd1e21</title>
<path fill="none" stroke="gray" d="M218,-260C218,-260 278,-260 278,-260 284,-260 290,-266 290,-272 290,-272 290,-323 290,-323 290,-329 284,-335 278,-335 278,-335 218,-335 218,-335 212,-335 206,-329 206,-323 206,-323 206,-272 206,-272 206,-266 212,-260 218,-260"/>
<text text-anchor="middle" x="248" y="-319.8" font-family="Times,serif" font-size="14.00" fill="gray">inputs</text>
</g>
<g id="clust7" class="cluster"><title>clusterd1e26</title>
<path fill="none" stroke="gray" d="M132,-260C132,-260 186,-260 186,-260 192,-260 198,-266 198,-272 198,-272 198,-323 198,-323 198,-329 192,-335 186,-335 186,-335 132,-335 132,-335 126,-335 120,-329 120,-323 120,-323 120,-272 120,-272 120,-266 126,-260 132,-260"/>
<text text-anchor="middle" x="159" y="-319.8" font-family="Times,serif" font-size="14.00" fill="gray">outputs</text>
</g>
<g id="clust8" class="cluster"><title>clusterd1e32</title>
<polygon fill="none" stroke="black" points="417,-618 417,-732 521,-732 521,-618 417,-618"/>
<text text-anchor="middle" x="469" y="-716.8" font-family="Times,serif" font-size="14.00">IntegerLiteral_6</text>
</g>
<g id="clust9" class="cluster"><title>clusterd1e34</title>
<path fill="none" stroke="gray" d="M447,-626C447,-626 501,-626 501,-626 507,-626 513,-632 513,-638 513,-638 513,-689 513,-689 513,-695 507,-701 501,-701 501,-701 447,-701 447,-701 441,-701 435,-695 435,-689 435,-689 435,-638 435,-638 435,-632 441,-626 447,-626"/>
<text text-anchor="middle" x="474" y="-685.8" font-family="Times,serif" font-size="14.00" fill="gray">outputs</text>
</g>
<g id="clust10" class="cluster"><title>clusterd1e40</title>
<polygon fill="none" stroke="black" points="196,-374 196,-488 522,-488 522,-374 196,-374"/>
<text text-anchor="middle" x="359" y="-472.8" font-family="Times,serif" font-size="14.00">loop_start_20</text>
</g>
<g id="clust11" class="cluster"><title>clusterd1e42</title>
<path fill="none" stroke="gray" d="M312,-382C312,-382 502,-382 502,-382 508,-382 514,-388 514,-394 514,-394 514,-445 514,-445 514,-451 508,-457 502,-457 502,-457 312,-457 312,-457 306,-457 300,-451 300,-445 300,-445 300,-394 300,-394 300,-388 306,-382 312,-382"/>
<text text-anchor="middle" x="407" y="-441.8" font-family="Times,serif" font-size="14.00" fill="gray">inputs</text>
</g>
<g id="clust12" class="cluster"><title>clusterd1e51</title>
<path fill="none" stroke="gray" d="M216,-382C216,-382 280,-382 280,-382 286,-382 292,-388 292,-394 292,-394 292,-445 292,-445 292,-451 286,-457 280,-457 280,-457 216,-457 216,-457 210,-457 204,-451 204,-445 204,-445 204,-394 204,-394 204,-388 210,-382 216,-382"/>
<text text-anchor="middle" x="248" y="-441.8" font-family="Times,serif" font-size="14.00" fill="gray">outputs</text>
</g>
<g id="clust13" class="cluster"><title>clusterd1e58</title>
<polygon fill="none" stroke="black" points="244,-496 244,-610 352,-610 352,-496 244,-496"/>
<text text-anchor="middle" x="298" y="-594.8" font-family="Times,serif" font-size="14.00">VarRef_13</text>
</g>
<g id="clust14" class="cluster"><title>clusterd1e60</title>
<path fill="none" stroke="gray" d="M264,-504C264,-504 332,-504 332,-504 338,-504 344,-510 344,-516 344,-516 344,-567 344,-567 344,-573 338,-579 332,-579 332,-579 264,-579 264,-579 258,-579 252,-573 252,-567 252,-567 252,-516 252,-516 252,-510 258,-504 264,-504"/>
<text text-anchor="middle" x="298" y="-563.8" font-family="Times,serif" font-size="14.00" fill="gray">outputs</text>
</g>
<g id="clust15" class="cluster"><title>clusterd1e66</title>
<polygon fill="none" stroke="black" points="781,-618 781,-732 892,-732 892,-618 781,-618"/>
<text text-anchor="middle" x="836.5" y="-716.8" font-family="Times,serif" font-size="14.00">IntegerLiteral_11</text>
</g>
<g id="clust16" class="cluster"><title>clusterd1e68</title>
<path fill="none" stroke="gray" d="M801,-626C801,-626 855,-626 855,-626 861,-626 867,-632 867,-638 867,-638 867,-689 867,-689 867,-695 861,-701 855,-701 855,-701 801,-701 801,-701 795,-701 789,-695 789,-689 789,-689 789,-638 789,-638 789,-632 795,-626 801,-626"/>
<text text-anchor="middle" x="828" y="-685.8" font-family="Times,serif" font-size="14.00" fill="gray">outputs</text>
</g>
<g id="clust17" class="cluster"><title>clusterd1e74</title>
<polygon fill="none" stroke="black" points="360,-496 360,-610 604,-610 604,-496 360,-496"/>
<text text-anchor="middle" x="482" y="-594.8" font-family="Times,serif" font-size="14.00">AdditiveExpr_3</text>
</g>
<g id="clust18" class="cluster"><title>clusterd1e76</title>
<path fill="none" stroke="gray" d="M466,-504C466,-504 584,-504 584,-504 590,-504 596,-510 596,-516 596,-516 596,-567 596,-567 596,-573 590,-579 584,-579 584,-579 466,-579 466,-579 460,-579 454,-573 454,-567 454,-567 454,-516 454,-516 454,-510 460,-504 466,-504"/>
<text text-anchor="middle" x="525" y="-563.8" font-family="Times,serif" font-size="14.00" fill="gray">inputs</text>
</g>
<g id="clust19" class="cluster"><title>clusterd1e83</title>
<path fill="none" stroke="gray" d="M380,-504C380,-504 434,-504 434,-504 440,-504 446,-510 446,-516 446,-516 446,-567 446,-567 446,-573 440,-579 434,-579 434,-579 380,-579 380,-579 374,-579 368,-573 368,-567 368,-567 368,-516 368,-516 368,-510 374,-504 380,-504"/>
<text text-anchor="middle" x="407" y="-563.8" font-family="Times,serif" font-size="14.00" fill="gray">outputs</text>
</g>
<g id="clust20" class="cluster"><title>clusterd1e89</title>
<polygon fill="none" stroke="black" points="19,-130 19,-244 213,-244 213,-130 19,-130"/>
<text text-anchor="middle" x="116" y="-228.8" font-family="Times,serif" font-size="14.00">loop_end_18</text>
</g>
<g id="clust21" class="cluster"><title>clusterd1e91</title>
<path fill="none" stroke="gray" d="M125,-138C125,-138 193,-138 193,-138 199,-138 205,-144 205,-150 205,-150 205,-201 205,-201 205,-207 199,-213 193,-213 193,-213 125,-213 125,-213 119,-213 113,-207 113,-201 113,-201 113,-150 113,-150 113,-144 119,-138 125,-138"/>
<text text-anchor="middle" x="159" y="-197.8" font-family="Times,serif" font-size="14.00" fill="gray">inputs</text>
</g>
<g id="clust22" class="cluster"><title>clusterd1e96</title>
<path fill="none" stroke="gray" d="M39,-138C39,-138 93,-138 93,-138 99,-138 105,-144 105,-150 105,-150 105,-201 105,-201 105,-207 99,-213 93,-213 93,-213 39,-213 39,-213 33,-213 27,-207 27,-201 27,-201 27,-150 27,-150 27,-144 33,-138 39,-138"/>
<text text-anchor="middle" x="66" y="-197.8" font-family="Times,serif" font-size="14.00" fill="gray">outputs</text>
</g>
<g id="clust23" class="cluster"><title>clusterd1e102</title>
<polygon fill="none" stroke="black" points="529,-618 529,-732 633,-732 633,-618 529,-618"/>
<text text-anchor="middle" x="581" y="-716.8" font-family="Times,serif" font-size="14.00">IntegerLiteral_4</text>
</g>
<g id="clust24" class="cluster"><title>clusterd1e104</title>
<path fill="none" stroke="gray" d="M549,-626C549,-626 603,-626 603,-626 609,-626 615,-632 615,-638 615,-638 615,-689 615,-689 615,-695 609,-701 603,-701 603,-701 549,-701 549,-701 543,-701 537,-695 537,-689 537,-689 537,-638 537,-638 537,-632 543,-626 549,-626"/>
<text text-anchor="middle" x="576" y="-685.8" font-family="Times,serif" font-size="14.00" fill="gray">outputs</text>
</g>
<g id="clust25" class="cluster"><title>clusterd1e110</title>
<polygon fill="none" stroke="black" points="612,-496 612,-610 856,-610 856,-496 612,-496"/>
<text text-anchor="middle" x="734" y="-594.8" font-family="Times,serif" font-size="14.00">MultiplicativeExpr_8</text>
</g>
<g id="clust26" class="cluster"><title>clusterd1e112</title>
<path fill="none" stroke="gray" d="M718,-504C718,-504 836,-504 836,-504 842,-504 848,-510 848,-516 848,-516 848,-567 848,-567 848,-573 842,-579 836,-579 836,-579 718,-579 718,-579 712,-579 706,-573 706,-567 706,-567 706,-516 706,-516 706,-510 712,-504 718,-504"/>
<text text-anchor="middle" x="777" y="-563.8" font-family="Times,serif" font-size="14.00" fill="gray">inputs</text>
</g>
<g id="clust27" class="cluster"><title>clusterd1e119</title>
<path fill="none" stroke="gray" d="M632,-504C632,-504 686,-504 686,-504 692,-504 698,-510 698,-516 698,-516 698,-567 698,-567 698,-573 692,-579 686,-579 686,-579 632,-579 632,-579 626,-579 620,-573 620,-567 620,-567 620,-516 620,-516 620,-510 626,-504 632,-504"/>
<text text-anchor="middle" x="659" y="-563.8" font-family="Times,serif" font-size="14.00" fill="gray">outputs</text>
</g>
<!-- d1e3.source -->
<g id="node1" class="node"><title>d1e3.source</title>
<polygon fill="none" stroke="black" points="24.448,-36.4377 66,-24 107.552,-36.4377 107.513,-56.5623 24.4868,-56.5623 24.448,-36.4377"/>
<text text-anchor="middle" x="66" y="-38.3" font-family="Times,serif" font-size="14.00">source</text>
</g>
<!-- d1e11.result -->
<g id="node2" class="node"><title>d1e11.result</title>
<ellipse fill="none" stroke="black" cx="726" cy="-652" rx="30.5947" ry="18"/>
<text text-anchor="middle" x="726" y="-648.3" font-family="Times,serif" font-size="14.00">result</text>
</g>
<!-- d1e110.s1 -->
<g id="node19" class="node"><title>d1e110.s1</title>
<ellipse fill="none" stroke="black" cx="741" cy="-530" rx="27" ry="18"/>
<text text-anchor="middle" x="741" y="-526.3" font-family="Times,serif" font-size="14.00">s1</text>
</g>
<!-- d1e11.result&#45;&gt;d1e110.s1 -->
<g id="edge10" class="edge"><title>d1e11.result&#45;&gt;d1e110.s1</title>
<path fill="none" stroke="black" d="M728.149,-633.807C730.611,-614.114 734.677,-581.583 737.576,-558.39"/>
<polygon fill="black" stroke="black" points="741.087,-558.518 738.855,-548.161 734.141,-557.65 741.087,-558.518"/>
</g>
<!-- d1e19.source -->
<g id="node3" class="node"><title>d1e19.source</title>
<ellipse fill="none" stroke="black" cx="248" cy="-286" rx="33.5952" ry="18"/>
<text text-anchor="middle" x="248" y="-282.3" font-family="Times,serif" font-size="14.00">source</text>
</g>
<!-- d1e19.result -->
<g id="node4" class="node"><title>d1e19.result</title>
<ellipse fill="none" stroke="black" cx="159" cy="-286" rx="30.5947" ry="18"/>
<text text-anchor="middle" x="159" y="-282.3" font-family="Times,serif" font-size="14.00">result</text>
</g>
<!-- d1e89.I_result -->
<g id="node15" class="node"><title>d1e89.I_result</title>
<ellipse fill="none" stroke="black" cx="159" cy="-164" rx="37.8943" ry="18"/>
<text text-anchor="middle" x="159" y="-160.3" font-family="Times,serif" font-size="14.00">I_result</text>
</g>
<!-- d1e19.result&#45;&gt;d1e89.I_result -->
<g id="edge8" class="edge"><title>d1e19.result&#45;&gt;d1e89.I_result</title>
<path fill="none" stroke="black" d="M159,-267.807C159,-248.114 159,-215.583 159,-192.39"/>
<polygon fill="black" stroke="black" points="162.5,-192.161 159,-182.161 155.5,-192.161 162.5,-192.161"/>
</g>
<!-- d1e32.result -->
<g id="node5" class="node"><title>d1e32.result</title>
<ellipse fill="none" stroke="black" cx="474" cy="-652" rx="30.5947" ry="18"/>
<text text-anchor="middle" x="474" y="-648.3" font-family="Times,serif" font-size="14.00">result</text>
</g>
<!-- d1e74.s2 -->
<g id="node12" class="node"><title>d1e74.s2</title>
<ellipse fill="none" stroke="black" cx="489" cy="-530" rx="27" ry="18"/>
<text text-anchor="middle" x="489" y="-526.3" font-family="Times,serif" font-size="14.00">s2</text>
</g>
<!-- d1e32.result&#45;&gt;d1e74.s2 -->
<g id="edge6" class="edge"><title>d1e32.result&#45;&gt;d1e74.s2</title>
<path fill="none" stroke="black" d="M476.149,-633.807C478.611,-614.114 482.677,-581.583 485.576,-558.39"/>
<polygon fill="black" stroke="black" points="489.087,-558.518 486.855,-548.161 482.141,-557.65 489.087,-558.518"/>
</g>
<!-- d1e40.s2 -->
<g id="node6" class="node"><title>d1e40.s2</title>
<ellipse fill="none" stroke="black" cx="479" cy="-408" rx="27" ry="18"/>
<text text-anchor="middle" x="479" y="-404.3" font-family="Times,serif" font-size="14.00">s2</text>
</g>
<!-- d1e40.s1 -->
<g id="node7" class="node"><title>d1e40.s1</title>
<ellipse fill="none" stroke="black" cx="407" cy="-408" rx="27" ry="18"/>
<text text-anchor="middle" x="407" y="-404.3" font-family="Times,serif" font-size="14.00">s1</text>
</g>
<!-- d1e40.s3 -->
<g id="node8" class="node"><title>d1e40.s3</title>
<ellipse fill="none" stroke="black" cx="335" cy="-408" rx="27" ry="18"/>
<text text-anchor="middle" x="335" y="-404.3" font-family="Times,serif" font-size="14.00">s3</text>
</g>
<!-- d1e40.current -->
<g id="node9" class="node"><title>d1e40.current</title>
<ellipse fill="none" stroke="black" cx="248" cy="-408" rx="35.9954" ry="18"/>
<text text-anchor="middle" x="248" y="-404.3" font-family="Times,serif" font-size="14.00">current</text>
</g>
<!-- d1e40.current&#45;&gt;d1e19.source -->
<g id="edge2" class="edge"><title>d1e40.current&#45;&gt;d1e19.source</title>
<path fill="none" stroke="black" d="M248,-389.807C248,-370.114 248,-337.583 248,-314.39"/>
<polygon fill="black" stroke="black" points="251.5,-314.161 248,-304.161 244.5,-314.161 251.5,-314.161"/>
</g>
<!-- d1e58.result -->
<g id="node10" class="node"><title>d1e58.result</title>
<polygon fill="none" stroke="black" points="260.481,-524.438 298,-512 335.519,-524.438 335.484,-544.562 260.516,-544.562 260.481,-524.438"/>
<text text-anchor="middle" x="298" y="-526.3" font-family="Times,serif" font-size="14.00">result</text>
</g>
<!-- d1e58.result&#45;&gt;d1e40.s3 -->
<g id="edge5" class="edge"><title>d1e58.result&#45;&gt;d1e40.s3</title>
<path fill="none" stroke="black" d="M302.837,-513.312C308.912,-493.611 319.427,-459.508 326.775,-435.677"/>
<polygon fill="black" stroke="black" points="330.202,-436.439 329.804,-425.851 323.513,-434.376 330.202,-436.439"/>
</g>
<!-- d1e66.result -->
<g id="node11" class="node"><title>d1e66.result</title>
<ellipse fill="none" stroke="black" cx="828" cy="-652" rx="30.5947" ry="18"/>
<text text-anchor="middle" x="828" y="-648.3" font-family="Times,serif" font-size="14.00">result</text>
</g>
<!-- d1e110.s2 -->
<g id="node18" class="node"><title>d1e110.s2</title>
<ellipse fill="none" stroke="black" cx="813" cy="-530" rx="27" ry="18"/>
<text text-anchor="middle" x="813" y="-526.3" font-family="Times,serif" font-size="14.00">s2</text>
</g>
<!-- d1e66.result&#45;&gt;d1e110.s2 -->
<g id="edge9" class="edge"><title>d1e66.result&#45;&gt;d1e110.s2</title>
<path fill="none" stroke="black" d="M825.851,-633.807C823.389,-614.114 819.323,-581.583 816.424,-558.39"/>
<polygon fill="black" stroke="black" points="819.859,-557.65 815.145,-548.161 812.913,-558.518 819.859,-557.65"/>
</g>
<!-- d1e74.s1 -->
<g id="node13" class="node"><title>d1e74.s1</title>
<ellipse fill="none" stroke="black" cx="561" cy="-530" rx="27" ry="18"/>
<text text-anchor="middle" x="561" y="-526.3" font-family="Times,serif" font-size="14.00">s1</text>
</g>
<!-- d1e74.result -->
<g id="node14" class="node"><title>d1e74.result</title>
<ellipse fill="none" stroke="black" cx="407" cy="-530" rx="30.5947" ry="18"/>
<text text-anchor="middle" x="407" y="-526.3" font-family="Times,serif" font-size="14.00">result</text>
</g>
<!-- d1e74.result&#45;&gt;d1e40.s1 -->
<g id="edge4" class="edge"><title>d1e74.result&#45;&gt;d1e40.s1</title>
<path fill="none" stroke="black" d="M407,-511.807C407,-492.114 407,-459.583 407,-436.39"/>
<polygon fill="black" stroke="black" points="410.5,-436.161 407,-426.161 403.5,-436.161 410.5,-436.161"/>
</g>
<!-- d1e89.result -->
<g id="node16" class="node"><title>d1e89.result</title>
<ellipse fill="none" stroke="black" cx="66" cy="-164" rx="30.5947" ry="18"/>
<text text-anchor="middle" x="66" y="-160.3" font-family="Times,serif" font-size="14.00">result</text>
</g>
<!-- d1e89.result&#45;&gt;d1e3.source -->
<g id="edge1" class="edge"><title>d1e89.result&#45;&gt;d1e3.source</title>
<path fill="none" stroke="black" d="M66,-145.807C66,-125.107 66,-90.2224 66,-66.908"/>
<polygon fill="black" stroke="black" points="69.5001,-66.8039 66,-56.8039 62.5001,-66.804 69.5001,-66.8039"/>
</g>
<!-- d1e102.result -->
<g id="node17" class="node"><title>d1e102.result</title>
<ellipse fill="none" stroke="black" cx="576" cy="-652" rx="30.5947" ry="18"/>
<text text-anchor="middle" x="576" y="-648.3" font-family="Times,serif" font-size="14.00">result</text>
</g>
<!-- d1e102.result&#45;&gt;d1e74.s1 -->
<g id="edge7" class="edge"><title>d1e102.result&#45;&gt;d1e74.s1</title>
<path fill="none" stroke="black" d="M573.851,-633.807C571.389,-614.114 567.323,-581.583 564.424,-558.39"/>
<polygon fill="black" stroke="black" points="567.859,-557.65 563.145,-548.161 560.913,-558.518 567.859,-557.65"/>
</g>
<!-- d1e110.result -->
<g id="node20" class="node"><title>d1e110.result</title>
<ellipse fill="none" stroke="black" cx="659" cy="-530" rx="30.5947" ry="18"/>
<text text-anchor="middle" x="659" y="-526.3" font-family="Times,serif" font-size="14.00">result</text>
</g>
<!-- d1e110.result&#45;&gt;d1e40.s2 -->
<g id="edge3" class="edge"><title>d1e110.result&#45;&gt;d1e40.s2</title>
<path fill="none" stroke="black" d="M639.394,-515.929C607.139,-494.426 542.811,-451.541 506.181,-427.121"/>
<polygon fill="black" stroke="black" points="507.763,-423.969 497.501,-421.334 503.88,-429.793 507.763,-423.969"/>
</g>
</g>
</svg>
