<?xml version="1.0" encoding="UTF-8" standalone="no"?>
<!DOCTYPE svg PUBLIC "-//W3C//DTD SVG 1.1//EN"
 "http://www.w3.org/Graphics/SVG/1.1/DTD/svg11.dtd">
<!-- Generated by graphviz version 2.38.0 (20140413.2041)
 -->
<!-- Title: pg_graph Pages: 1 -->
<svg width="590pt" height="852pt"
 viewBox="0.00 0.00 590.00 851.65" xmlns="http://www.w3.org/2000/svg" xmlns:xlink="http://www.w3.org/1999/xlink">
<g id="graph0" class="graph" transform="scale(1 1) rotate(0) translate(4 847.647)">
<title>pg_graph</title>
<polygon fill="white" stroke="none" points="-4,4 -4,-847.647 586,-847.647 586,4 -4,4"/>
<g id="clust1" class="cluster"><title>cluster&#45;C27</title>
<polygon fill="none" stroke="gray" points="8,-104.647 8,-835.647 574,-835.647 574,-104.647 8,-104.647"/>
<text text-anchor="middle" x="291" y="-820.447" font-family="Times,serif" font-size="14.00">PipelineStart</text>
<text text-anchor="middle" x="291" y="-805.447" font-family="Times,serif" font-size="14.00">PipelineStart&#45;27</text>
</g>
<g id="clust2" class="cluster"><title>cluster&#45;N28</title>
<polygon fill="none" stroke="black" points="472,-523.647 472,-652.647 566,-652.647 566,-523.647 472,-523.647"/>
<text text-anchor="middle" x="519" y="-637.447" font-family="Times,serif" font-size="14.00">Literal</text>
<text text-anchor="middle" x="519" y="-622.447" font-family="Times,serif" font-size="14.00">number&#45;1&#45;28</text>
</g>
<g id="clust3" class="cluster"><title>cluster&#45;N28&#45;outputs</title>
<path fill="none" stroke="gray" d="M492,-531.647C492,-531.647 546,-531.647 546,-531.647 552,-531.647 558,-537.647 558,-543.647 558,-543.647 558,-594.647 558,-594.647 558,-600.647 552,-606.647 546,-606.647 546,-606.647 492,-606.647 492,-606.647 486,-606.647 480,-600.647 480,-594.647 480,-594.647 480,-543.647 480,-543.647 480,-537.647 486,-531.647 492,-531.647"/>
<text text-anchor="middle" x="519" y="-591.447" font-family="Times,serif" font-size="14.00" fill="gray">outputs</text>
</g>
<g id="clust4" class="cluster"><title>cluster&#45;N29</title>
<polygon fill="none" stroke="black" points="370,-523.647 370,-652.647 464,-652.647 464,-523.647 370,-523.647"/>
<text text-anchor="middle" x="417" y="-637.447" font-family="Times,serif" font-size="14.00">Literal</text>
<text text-anchor="middle" x="417" y="-622.447" font-family="Times,serif" font-size="14.00">number&#45;2&#45;29</text>
</g>
<g id="clust5" class="cluster"><title>cluster&#45;N29&#45;outputs</title>
<path fill="none" stroke="gray" d="M390,-531.647C390,-531.647 444,-531.647 444,-531.647 450,-531.647 456,-537.647 456,-543.647 456,-543.647 456,-594.647 456,-594.647 456,-600.647 450,-606.647 444,-606.647 444,-606.647 390,-606.647 390,-606.647 384,-606.647 378,-600.647 378,-594.647 378,-594.647 378,-543.647 378,-543.647 378,-537.647 384,-531.647 390,-531.647"/>
<text text-anchor="middle" x="417" y="-591.447" font-family="Times,serif" font-size="14.00" fill="gray">outputs</text>
</g>
<g id="clust6" class="cluster"><title>cluster&#45;N30</title>
<polygon fill="none" stroke="black" points="288,-386.647 288,-515.647 532,-515.647 532,-386.647 288,-386.647"/>
<text text-anchor="middle" x="410" y="-500.447" font-family="Times,serif" font-size="14.00">BinaryOp</text>
<text text-anchor="middle" x="410" y="-485.447" font-family="Times,serif" font-size="14.00">add&#45;30</text>
</g>
<g id="clust7" class="cluster"><title>cluster&#45;N30&#45;inputs</title>
<path fill="none" stroke="gray" d="M394,-394.647C394,-394.647 512,-394.647 512,-394.647 518,-394.647 524,-400.647 524,-406.647 524,-406.647 524,-457.647 524,-457.647 524,-463.647 518,-469.647 512,-469.647 512,-469.647 394,-469.647 394,-469.647 388,-469.647 382,-463.647 382,-457.647 382,-457.647 382,-406.647 382,-406.647 382,-400.647 388,-394.647 394,-394.647"/>
<text text-anchor="middle" x="453" y="-454.447" font-family="Times,serif" font-size="14.00" fill="gray">inputs</text>
</g>
<g id="clust8" class="cluster"><title>cluster&#45;N30&#45;outputs</title>
<path fill="none" stroke="gray" d="M308,-394.647C308,-394.647 362,-394.647 362,-394.647 368,-394.647 374,-400.647 374,-406.647 374,-406.647 374,-457.647 374,-457.647 374,-463.647 368,-469.647 362,-469.647 362,-469.647 308,-469.647 308,-469.647 302,-469.647 296,-463.647 296,-457.647 296,-457.647 296,-406.647 296,-406.647 296,-400.647 302,-394.647 308,-394.647"/>
<text text-anchor="middle" x="335" y="-454.447" font-family="Times,serif" font-size="14.00" fill="gray">outputs</text>
</g>
<g id="clust9" class="cluster"><title>cluster&#45;N31</title>
<polygon fill="none" stroke="black" points="287,-660.647 287,-789.647 381,-789.647 381,-660.647 287,-660.647"/>
<text text-anchor="middle" x="334" y="-774.447" font-family="Times,serif" font-size="14.00">Literal</text>
<text text-anchor="middle" x="334" y="-759.447" font-family="Times,serif" font-size="14.00">number&#45;3&#45;31</text>
</g>
<g id="clust10" class="cluster"><title>cluster&#45;N31&#45;outputs</title>
<path fill="none" stroke="gray" d="M307,-668.647C307,-668.647 361,-668.647 361,-668.647 367,-668.647 373,-674.647 373,-680.647 373,-680.647 373,-731.647 373,-731.647 373,-737.647 367,-743.647 361,-743.647 361,-743.647 307,-743.647 307,-743.647 301,-743.647 295,-737.647 295,-731.647 295,-731.647 295,-680.647 295,-680.647 295,-674.647 301,-668.647 307,-668.647"/>
<text text-anchor="middle" x="334" y="-728.447" font-family="Times,serif" font-size="14.00" fill="gray">outputs</text>
</g>
<g id="clust11" class="cluster"><title>cluster&#45;N32</title>
<polygon fill="none" stroke="black" points="185,-660.647 185,-789.647 279,-789.647 279,-660.647 185,-660.647"/>
<text text-anchor="middle" x="232" y="-774.447" font-family="Times,serif" font-size="14.00">Literal</text>
<text text-anchor="middle" x="232" y="-759.447" font-family="Times,serif" font-size="14.00">number&#45;4&#45;32</text>
</g>
<g id="clust12" class="cluster"><title>cluster&#45;N32&#45;outputs</title>
<path fill="none" stroke="gray" d="M205,-668.647C205,-668.647 259,-668.647 259,-668.647 265,-668.647 271,-674.647 271,-680.647 271,-680.647 271,-731.647 271,-731.647 271,-737.647 265,-743.647 259,-743.647 259,-743.647 205,-743.647 205,-743.647 199,-743.647 193,-737.647 193,-731.647 193,-731.647 193,-680.647 193,-680.647 193,-674.647 199,-668.647 205,-668.647"/>
<text text-anchor="middle" x="232" y="-728.447" font-family="Times,serif" font-size="14.00" fill="gray">outputs</text>
</g>
<g id="clust13" class="cluster"><title>cluster&#45;N33</title>
<polygon fill="none" stroke="black" points="118,-523.647 118,-652.647 362,-652.647 362,-523.647 118,-523.647"/>
<text text-anchor="middle" x="240" y="-637.447" font-family="Times,serif" font-size="14.00">BinaryOp</text>
<text text-anchor="middle" x="240" y="-622.447" font-family="Times,serif" font-size="14.00">add&#45;33</text>
</g>
<g id="clust14" class="cluster"><title>cluster&#45;N33&#45;inputs</title>
<path fill="none" stroke="gray" d="M224,-531.647C224,-531.647 342,-531.647 342,-531.647 348,-531.647 354,-537.647 354,-543.647 354,-543.647 354,-594.647 354,-594.647 354,-600.647 348,-606.647 342,-606.647 342,-606.647 224,-606.647 224,-606.647 218,-606.647 212,-600.647 212,-594.647 212,-594.647 212,-543.647 212,-543.647 212,-537.647 218,-531.647 224,-531.647"/>
<text text-anchor="middle" x="283" y="-591.447" font-family="Times,serif" font-size="14.00" fill="gray">inputs</text>
</g>
<g id="clust15" class="cluster"><title>cluster&#45;N33&#45;outputs</title>
<path fill="none" stroke="gray" d="M138,-531.647C138,-531.647 192,-531.647 192,-531.647 198,-531.647 204,-537.647 204,-543.647 204,-543.647 204,-594.647 204,-594.647 204,-600.647 198,-606.647 192,-606.647 192,-606.647 138,-606.647 138,-606.647 132,-606.647 126,-600.647 126,-594.647 126,-594.647 126,-543.647 126,-543.647 126,-537.647 132,-531.647 138,-531.647"/>
<text text-anchor="middle" x="165" y="-591.447" font-family="Times,serif" font-size="14.00" fill="gray">outputs</text>
</g>
<g id="clust16" class="cluster"><title>cluster&#45;N34</title>
<polygon fill="none" stroke="black" points="16,-523.647 16,-652.647 110,-652.647 110,-523.647 16,-523.647"/>
<text text-anchor="middle" x="63" y="-637.447" font-family="Times,serif" font-size="14.00">Literal</text>
<text text-anchor="middle" x="63" y="-622.447" font-family="Times,serif" font-size="14.00">number&#45;5&#45;34</text>
</g>
<g id="clust17" class="cluster"><title>cluster&#45;N34&#45;outputs</title>
<path fill="none" stroke="gray" d="M36,-531.647C36,-531.647 90,-531.647 90,-531.647 96,-531.647 102,-537.647 102,-543.647 102,-543.647 102,-594.647 102,-594.647 102,-600.647 96,-606.647 90,-606.647 90,-606.647 36,-606.647 36,-606.647 30,-606.647 24,-600.647 24,-594.647 24,-594.647 24,-543.647 24,-543.647 24,-537.647 30,-531.647 36,-531.647"/>
<text text-anchor="middle" x="63" y="-591.447" font-family="Times,serif" font-size="14.00" fill="gray">outputs</text>
</g>
<g id="clust18" class="cluster"><title>cluster&#45;N35</title>
<polygon fill="none" stroke="black" points="16,-386.647 16,-515.647 260,-515.647 260,-386.647 16,-386.647"/>
<text text-anchor="middle" x="138" y="-500.447" font-family="Times,serif" font-size="14.00">BinaryOp</text>
<text text-anchor="middle" x="138" y="-485.447" font-family="Times,serif" font-size="14.00">add&#45;35</text>
</g>
<g id="clust19" class="cluster"><title>cluster&#45;N35&#45;inputs</title>
<path fill="none" stroke="gray" d="M122,-394.647C122,-394.647 240,-394.647 240,-394.647 246,-394.647 252,-400.647 252,-406.647 252,-406.647 252,-457.647 252,-457.647 252,-463.647 246,-469.647 240,-469.647 240,-469.647 122,-469.647 122,-469.647 116,-469.647 110,-463.647 110,-457.647 110,-457.647 110,-406.647 110,-406.647 110,-400.647 116,-394.647 122,-394.647"/>
<text text-anchor="middle" x="181" y="-454.447" font-family="Times,serif" font-size="14.00" fill="gray">inputs</text>
</g>
<g id="clust20" class="cluster"><title>cluster&#45;N35&#45;outputs</title>
<path fill="none" stroke="gray" d="M36,-394.647C36,-394.647 90,-394.647 90,-394.647 96,-394.647 102,-400.647 102,-406.647 102,-406.647 102,-457.647 102,-457.647 102,-463.647 96,-469.647 90,-469.647 90,-469.647 36,-469.647 36,-469.647 30,-469.647 24,-463.647 24,-457.647 24,-457.647 24,-406.647 24,-406.647 24,-400.647 30,-394.647 36,-394.647"/>
<text text-anchor="middle" x="63" y="-454.447" font-family="Times,serif" font-size="14.00" fill="gray">outputs</text>
</g>
<g id="clust21" class="cluster"><title>cluster&#45;N36</title>
<polygon fill="none" stroke="black" points="75,-249.647 75,-378.647 319,-378.647 319,-249.647 75,-249.647"/>
<text text-anchor="middle" x="197" y="-363.447" font-family="Times,serif" font-size="14.00">BinaryOp</text>
<text text-anchor="middle" x="197" y="-348.447" font-family="Times,serif" font-size="14.00">add&#45;36</text>
</g>
<g id="clust22" class="cluster"><title>cluster&#45;N36&#45;inputs</title>
<path fill="none" stroke="gray" d="M181,-257.647C181,-257.647 299,-257.647 299,-257.647 305,-257.647 311,-263.647 311,-269.647 311,-269.647 311,-320.647 311,-320.647 311,-326.647 305,-332.647 299,-332.647 299,-332.647 181,-332.647 181,-332.647 175,-332.647 169,-326.647 169,-320.647 169,-320.647 169,-269.647 169,-269.647 169,-263.647 175,-257.647 181,-257.647"/>
<text text-anchor="middle" x="240" y="-317.447" font-family="Times,serif" font-size="14.00" fill="gray">inputs</text>
</g>
<g id="clust23" class="cluster"><title>cluster&#45;N36&#45;outputs</title>
<path fill="none" stroke="gray" d="M95,-257.647C95,-257.647 149,-257.647 149,-257.647 155,-257.647 161,-263.647 161,-269.647 161,-269.647 161,-320.647 161,-320.647 161,-326.647 155,-332.647 149,-332.647 149,-332.647 95,-332.647 95,-332.647 89,-332.647 83,-326.647 83,-320.647 83,-320.647 83,-269.647 83,-269.647 83,-263.647 89,-257.647 95,-257.647"/>
<text text-anchor="middle" x="122" y="-317.447" font-family="Times,serif" font-size="14.00" fill="gray">outputs</text>
</g>
<g id="clust24" class="cluster"><title>cluster&#45;E26</title>
<polygon fill="none" stroke="black" points="67,-112.647 67,-241.647 177,-241.647 177,-112.647 67,-112.647"/>
<text text-anchor="middle" x="122" y="-226.447" font-family="Times,serif" font-size="14.00">ContainerEnd</text>
<text text-anchor="middle" x="122" y="-211.447" font-family="Times,serif" font-size="14.00">ContainerEnd&#45;26</text>
</g>
<g id="clust25" class="cluster"><title>cluster&#45;E26&#45;inputs</title>
<path fill="none" stroke="gray" d="M95,-120.647C95,-120.647 149,-120.647 149,-120.647 155,-120.647 161,-126.647 161,-132.647 161,-132.647 161,-183.647 161,-183.647 161,-189.647 155,-195.647 149,-195.647 149,-195.647 95,-195.647 95,-195.647 89,-195.647 83,-189.647 83,-183.647 83,-183.647 83,-132.647 83,-132.647 83,-126.647 89,-120.647 95,-120.647"/>
<text text-anchor="middle" x="122" y="-180.447" font-family="Times,serif" font-size="14.00" fill="gray">inputs</text>
</g>
<!-- N28&#45;O&#45;result -->
<g id="node1" class="node"><title>N28&#45;O&#45;result</title>
<ellipse fill="none" stroke="black" cx="519" cy="-557.647" rx="30.5947" ry="18"/>
<text text-anchor="middle" x="519" y="-553.947" font-family="Times,serif" font-size="14.00">result</text>
</g>
<!-- N30&#45;I&#45;left -->
<g id="node4" class="node"><title>N30&#45;I&#45;left</title>
<ellipse fill="none" stroke="black" cx="489" cy="-420.647" rx="27" ry="18"/>
<text text-anchor="middle" x="489" y="-416.947" font-family="Times,serif" font-size="14.00">left</text>
</g>
<!-- N28&#45;O&#45;result&#45;&gt;N30&#45;I&#45;left -->
<g id="edge2" class="edge"><title>N28&#45;O&#45;result&#45;&gt;N30&#45;I&#45;left</title>
<path fill="none" stroke="black" d="M515.2,-539.55C510.106,-516.625 501.007,-475.68 494.987,-448.588"/>
<polygon fill="black" stroke="black" points="498.355,-447.609 492.769,-438.606 491.521,-449.128 498.355,-447.609"/>
</g>
<!-- N29&#45;O&#45;result -->
<g id="node2" class="node"><title>N29&#45;O&#45;result</title>
<ellipse fill="none" stroke="black" cx="417" cy="-557.647" rx="30.5947" ry="18"/>
<text text-anchor="middle" x="417" y="-553.947" font-family="Times,serif" font-size="14.00">result</text>
</g>
<!-- N30&#45;I&#45;right -->
<g id="node3" class="node"><title>N30&#45;I&#45;right</title>
<ellipse fill="none" stroke="black" cx="417" cy="-420.647" rx="27.0966" ry="18"/>
<text text-anchor="middle" x="417" y="-416.947" font-family="Times,serif" font-size="14.00">right</text>
</g>
<!-- N29&#45;O&#45;result&#45;&gt;N30&#45;I&#45;right -->
<g id="edge3" class="edge"><title>N29&#45;O&#45;result&#45;&gt;N30&#45;I&#45;right</title>
<path fill="none" stroke="black" d="M417,-539.55C417,-516.75 417,-476.126 417,-449.033"/>
<polygon fill="black" stroke="black" points="420.5,-449.033 417,-439.033 413.5,-449.033 420.5,-449.033"/>
</g>
<!-- N30&#45;O&#45;result -->
<g id="node5" class="node"><title>N30&#45;O&#45;result</title>
<ellipse fill="none" stroke="black" cx="335" cy="-420.647" rx="30.5947" ry="18"/>
<text text-anchor="middle" x="335" y="-416.947" font-family="Times,serif" font-size="14.00">result</text>
</g>
<!-- N36&#45;I&#45;left -->
<g id="node16" class="node"><title>N36&#45;I&#45;left</title>
<ellipse fill="none" stroke="black" cx="276" cy="-283.647" rx="27" ry="18"/>
<text text-anchor="middle" x="276" y="-279.947" font-family="Times,serif" font-size="14.00">left</text>
</g>
<!-- N30&#45;O&#45;result&#45;&gt;N36&#45;I&#45;left -->
<g id="edge4" class="edge"><title>N30&#45;O&#45;result&#45;&gt;N36&#45;I&#45;left</title>
<path fill="none" stroke="black" d="M327.765,-403.094C317.68,-380.018 299.295,-337.949 287.368,-310.659"/>
<polygon fill="black" stroke="black" points="290.506,-309.098 283.294,-301.336 284.091,-311.901 290.506,-309.098"/>
</g>
<!-- N31&#45;O&#45;result -->
<g id="node6" class="node"><title>N31&#45;O&#45;result</title>
<ellipse fill="none" stroke="black" cx="334" cy="-694.647" rx="30.5947" ry="18"/>
<text text-anchor="middle" x="334" y="-690.947" font-family="Times,serif" font-size="14.00">result</text>
</g>
<!-- N33&#45;I&#45;left -->
<g id="node9" class="node"><title>N33&#45;I&#45;left</title>
<ellipse fill="none" stroke="black" cx="319" cy="-557.647" rx="27" ry="18"/>
<text text-anchor="middle" x="319" y="-553.947" font-family="Times,serif" font-size="14.00">left</text>
</g>
<!-- N31&#45;O&#45;result&#45;&gt;N33&#45;I&#45;left -->
<g id="edge5" class="edge"><title>N31&#45;O&#45;result&#45;&gt;N33&#45;I&#45;left</title>
<path fill="none" stroke="black" d="M332.1,-676.55C329.553,-653.625 325.004,-612.68 321.993,-585.588"/>
<polygon fill="black" stroke="black" points="325.467,-585.159 320.884,-575.606 318.51,-585.932 325.467,-585.159"/>
</g>
<!-- N32&#45;O&#45;result -->
<g id="node7" class="node"><title>N32&#45;O&#45;result</title>
<ellipse fill="none" stroke="black" cx="232" cy="-694.647" rx="30.5947" ry="18"/>
<text text-anchor="middle" x="232" y="-690.947" font-family="Times,serif" font-size="14.00">result</text>
</g>
<!-- N33&#45;I&#45;right -->
<g id="node8" class="node"><title>N33&#45;I&#45;right</title>
<ellipse fill="none" stroke="black" cx="247" cy="-557.647" rx="27.0966" ry="18"/>
<text text-anchor="middle" x="247" y="-553.947" font-family="Times,serif" font-size="14.00">right</text>
</g>
<!-- N32&#45;O&#45;result&#45;&gt;N33&#45;I&#45;right -->
<g id="edge6" class="edge"><title>N32&#45;O&#45;result&#45;&gt;N33&#45;I&#45;right</title>
<path fill="none" stroke="black" d="M233.9,-676.55C236.447,-653.625 240.996,-612.68 244.007,-585.588"/>
<polygon fill="black" stroke="black" points="247.49,-585.932 245.116,-575.606 240.533,-585.159 247.49,-585.932"/>
</g>
<!-- N33&#45;O&#45;result -->
<g id="node10" class="node"><title>N33&#45;O&#45;result</title>
<ellipse fill="none" stroke="black" cx="165" cy="-557.647" rx="30.5947" ry="18"/>
<text text-anchor="middle" x="165" y="-553.947" font-family="Times,serif" font-size="14.00">result</text>
</g>
<!-- N35&#45;I&#45;left -->
<g id="node13" class="node"><title>N35&#45;I&#45;left</title>
<ellipse fill="none" stroke="black" cx="217" cy="-420.647" rx="27" ry="18"/>
<text text-anchor="middle" x="217" y="-416.947" font-family="Times,serif" font-size="14.00">left</text>
</g>
<!-- N33&#45;O&#45;result&#45;&gt;N35&#45;I&#45;left -->
<g id="edge7" class="edge"><title>N33&#45;O&#45;result&#45;&gt;N35&#45;I&#45;left</title>
<path fill="none" stroke="black" d="M171.563,-539.9C174.466,-532.475 177.914,-523.629 181,-515.647 189.867,-492.712 199.863,-466.591 207.067,-447.715"/>
<polygon fill="black" stroke="black" points="210.365,-448.891 210.659,-438.3 203.824,-446.396 210.365,-448.891"/>
</g>
<!-- N34&#45;O&#45;result -->
<g id="node11" class="node"><title>N34&#45;O&#45;result</title>
<ellipse fill="none" stroke="black" cx="63" cy="-557.647" rx="30.5947" ry="18"/>
<text text-anchor="middle" x="63" y="-553.947" font-family="Times,serif" font-size="14.00">result</text>
</g>
<!-- N35&#45;I&#45;right -->
<g id="node12" class="node"><title>N35&#45;I&#45;right</title>
<ellipse fill="none" stroke="black" cx="145" cy="-420.647" rx="27.0966" ry="18"/>
<text text-anchor="middle" x="145" y="-416.947" font-family="Times,serif" font-size="14.00">right</text>
</g>
<!-- N34&#45;O&#45;result&#45;&gt;N35&#45;I&#45;right -->
<g id="edge8" class="edge"><title>N34&#45;O&#45;result&#45;&gt;N35&#45;I&#45;right</title>
<path fill="none" stroke="black" d="M80.5848,-542.87C89.1124,-535.501 98.9983,-525.855 106,-515.647 120.298,-494.803 130.795,-467.9 137.274,-448.219"/>
<polygon fill="black" stroke="black" points="140.62,-449.246 140.295,-438.656 133.946,-447.138 140.62,-449.246"/>
</g>
<!-- N35&#45;O&#45;result -->
<g id="node14" class="node"><title>N35&#45;O&#45;result</title>
<ellipse fill="none" stroke="black" cx="63" cy="-420.647" rx="30.5947" ry="18"/>
<text text-anchor="middle" x="63" y="-416.947" font-family="Times,serif" font-size="14.00">result</text>
</g>
<!-- N36&#45;I&#45;right -->
<g id="node15" class="node"><title>N36&#45;I&#45;right</title>
<ellipse fill="none" stroke="black" cx="204" cy="-283.647" rx="27.0966" ry="18"/>
<text text-anchor="middle" x="204" y="-279.947" font-family="Times,serif" font-size="14.00">right</text>
</g>
<!-- N35&#45;O&#45;result&#45;&gt;N36&#45;I&#45;right -->
<g id="edge9" class="edge"><title>N35&#45;O&#45;result&#45;&gt;N36&#45;I&#45;right</title>
<path fill="none" stroke="black" d="M78.0784,-404.94C85.8128,-398.262 95.7495,-390.917 106,-386.647 130.428,-376.473 144.033,-394.791 165,-378.647 185.934,-362.53 195.718,-333.17 200.236,-311.537"/>
<polygon fill="black" stroke="black" points="203.692,-312.097 202.057,-301.629 196.807,-310.832 203.692,-312.097"/>
</g>
<!-- N36&#45;O&#45;result -->
<g id="node17" class="node"><title>N36&#45;O&#45;result</title>
<ellipse fill="none" stroke="black" cx="122" cy="-283.647" rx="30.5947" ry="18"/>
<text text-anchor="middle" x="122" y="-279.947" font-family="Times,serif" font-size="14.00">result</text>
</g>
<!-- E26&#45;I&#45;result -->
<g id="node18" class="node"><title>E26&#45;I&#45;result</title>
<ellipse fill="none" stroke="black" cx="122" cy="-146.647" rx="30.5947" ry="18"/>
<text text-anchor="middle" x="122" y="-142.947" font-family="Times,serif" font-size="14.00">result</text>
</g>
<!-- N36&#45;O&#45;result&#45;&gt;E26&#45;I&#45;result -->
<g id="edge10" class="edge"><title>N36&#45;O&#45;result&#45;&gt;E26&#45;I&#45;result</title>
<path fill="none" stroke="black" d="M122,-265.55C122,-242.75 122,-202.126 122,-175.033"/>
<polygon fill="black" stroke="black" points="125.5,-175.033 122,-165.033 118.5,-175.033 125.5,-175.033"/>
</g>
<!-- N37&#45;I&#45;source -->
<g id="node19" class="node"><title>N37&#45;I&#45;source</title>
<polygon fill="none" stroke="black" points="198.83,-60.5842 122,-92.4718 45.1703,-60.5842 45.242,-8.98913 198.758,-8.98913 198.83,-60.5842"/>
<text text-anchor="middle" x="122" y="-57.6237" font-family="Times,serif" font-size="14.00">GraphOutput</text>
<text text-anchor="middle" x="122" y="-42.6237" font-family="Times,serif" font-size="14.00">result&#45;37</text>
<text text-anchor="middle" x="122" y="-27.6237" font-family="Times,serif" font-size="14.00">source</text>
</g>
<!-- E26&#45;I&#45;result&#45;&gt;N37&#45;I&#45;source -->
<g id="edge1" class="edge"><title>E26&#45;I&#45;result&#45;&gt;N37&#45;I&#45;source</title>
<path fill="none" stroke="black" d="M122,-128.521C122,-121.167 122,-112.119 122,-102.763"/>
<polygon fill="black" stroke="black" points="125.5,-102.555 122,-92.5555 118.5,-102.556 125.5,-102.555"/>
</g>
</g>
</svg>
