<?xml version="1.0" encoding="UTF-8" standalone="no"?>
<!DOCTYPE svg PUBLIC "-//W3C//DTD SVG 1.1//EN"
 "http://www.w3.org/Graphics/SVG/1.1/DTD/svg11.dtd">
<!-- Generated by graphviz version 2.38.0 (20140413.2041)
 -->
<!-- Title: pg_graph Pages: 1 -->
<svg width="622pt" height="727pt"
 viewBox="0.00 0.00 622.18 726.97" xmlns="http://www.w3.org/2000/svg" xmlns:xlink="http://www.w3.org/1999/xlink">
<g id="graph0" class="graph" transform="scale(1 1) rotate(0) translate(4 722.971)">
<title>pg_graph</title>
<polygon fill="white" stroke="none" points="-4,4 -4,-722.971 618.182,-722.971 618.182,4 -4,4"/>
<g id="clust1" class="cluster"><title>cluster&#45;C17</title>
<polygon fill="none" stroke="gray" points="8,-104.647 8,-710.971 484,-710.971 484,-104.647 8,-104.647"/>
<text text-anchor="middle" x="246" y="-695.771" font-family="Times,serif" font-size="14.00">PipelineStart</text>
<text text-anchor="middle" x="246" y="-680.771" font-family="Times,serif" font-size="14.00">PipelineStart&#45;17</text>
</g>
<g id="clust2" class="cluster"><title>cluster&#45;N18</title>
<polygon fill="none" stroke="black" points="185,-535.971 185,-664.971 279,-664.971 279,-535.971 185,-535.971"/>
<text text-anchor="middle" x="232" y="-649.771" font-family="Times,serif" font-size="14.00">Literal</text>
<text text-anchor="middle" x="232" y="-634.771" font-family="Times,serif" font-size="14.00">number&#45;1&#45;18</text>
</g>
<g id="clust3" class="cluster"><title>cluster&#45;N18&#45;outputs</title>
<path fill="none" stroke="gray" d="M205,-543.971C205,-543.971 259,-543.971 259,-543.971 265,-543.971 271,-549.971 271,-555.971 271,-555.971 271,-606.971 271,-606.971 271,-612.971 265,-618.971 259,-618.971 259,-618.971 205,-618.971 205,-618.971 199,-618.971 193,-612.971 193,-606.971 193,-606.971 193,-555.971 193,-555.971 193,-549.971 199,-543.971 205,-543.971"/>
<text text-anchor="middle" x="232" y="-603.771" font-family="Times,serif" font-size="14.00" fill="gray">outputs</text>
</g>
<g id="clust4" class="cluster"><title>cluster&#45;N19</title>
<polygon fill="none" stroke="black" points="83,-535.971 83,-664.971 177,-664.971 177,-535.971 83,-535.971"/>
<text text-anchor="middle" x="130" y="-649.771" font-family="Times,serif" font-size="14.00">Literal</text>
<text text-anchor="middle" x="130" y="-634.771" font-family="Times,serif" font-size="14.00">number&#45;2&#45;19</text>
</g>
<g id="clust5" class="cluster"><title>cluster&#45;N19&#45;outputs</title>
<path fill="none" stroke="gray" d="M103,-543.971C103,-543.971 157,-543.971 157,-543.971 163,-543.971 169,-549.971 169,-555.971 169,-555.971 169,-606.971 169,-606.971 169,-612.971 163,-618.971 157,-618.971 157,-618.971 103,-618.971 103,-618.971 97,-618.971 91,-612.971 91,-606.971 91,-606.971 91,-555.971 91,-555.971 91,-549.971 97,-543.971 103,-543.971"/>
<text text-anchor="middle" x="130" y="-603.771" font-family="Times,serif" font-size="14.00" fill="gray">outputs</text>
</g>
<g id="clust6" class="cluster"><title>cluster&#45;N20</title>
<polygon fill="none" stroke="black" points="16,-386.647 16,-515.647 260,-515.647 260,-386.647 16,-386.647"/>
<text text-anchor="middle" x="138" y="-500.447" font-family="Times,serif" font-size="14.00">BinaryOp</text>
<text text-anchor="middle" x="138" y="-485.447" font-family="Times,serif" font-size="14.00">add&#45;20</text>
</g>
<g id="clust7" class="cluster"><title>cluster&#45;N20&#45;inputs</title>
<path fill="none" stroke="gray" d="M122,-394.647C122,-394.647 240,-394.647 240,-394.647 246,-394.647 252,-400.647 252,-406.647 252,-406.647 252,-457.647 252,-457.647 252,-463.647 246,-469.647 240,-469.647 240,-469.647 122,-469.647 122,-469.647 116,-469.647 110,-463.647 110,-457.647 110,-457.647 110,-406.647 110,-406.647 110,-400.647 116,-394.647 122,-394.647"/>
<text text-anchor="middle" x="181" y="-454.447" font-family="Times,serif" font-size="14.00" fill="gray">inputs</text>
</g>
<g id="clust8" class="cluster"><title>cluster&#45;N20&#45;outputs</title>
<path fill="none" stroke="gray" d="M36,-394.647C36,-394.647 90,-394.647 90,-394.647 96,-394.647 102,-400.647 102,-406.647 102,-406.647 102,-457.647 102,-457.647 102,-463.647 96,-469.647 90,-469.647 90,-469.647 36,-469.647 36,-469.647 30,-469.647 24,-463.647 24,-457.647 24,-457.647 24,-406.647 24,-406.647 24,-400.647 30,-394.647 36,-394.647"/>
<text text-anchor="middle" x="63" y="-454.447" font-family="Times,serif" font-size="14.00" fill="gray">outputs</text>
</g>
<g id="clust9" class="cluster"><title>cluster&#45;N22</title>
<polygon fill="none" stroke="black" points="268,-386.647 268,-515.647 476,-515.647 476,-386.647 268,-386.647"/>
<text text-anchor="middle" x="372" y="-500.447" font-family="Times,serif" font-size="14.00">VarOp</text>
<text text-anchor="middle" x="372" y="-485.447" font-family="Times,serif" font-size="14.00">Variable&#45;22</text>
</g>
<g id="clust10" class="cluster"><title>cluster&#45;N22&#45;inputs</title>
<path fill="none" stroke="gray" d="M374,-394.647C374,-394.647 456,-394.647 456,-394.647 462,-394.647 468,-400.647 468,-406.647 468,-406.647 468,-457.647 468,-457.647 468,-463.647 462,-469.647 456,-469.647 456,-469.647 374,-469.647 374,-469.647 368,-469.647 362,-463.647 362,-457.647 362,-457.647 362,-406.647 362,-406.647 362,-400.647 368,-394.647 374,-394.647"/>
<text text-anchor="middle" x="415" y="-454.447" font-family="Times,serif" font-size="14.00" fill="gray">inputs</text>
</g>
<g id="clust11" class="cluster"><title>cluster&#45;N22&#45;outputs</title>
<path fill="none" stroke="gray" d="M288,-394.647C288,-394.647 342,-394.647 342,-394.647 348,-394.647 354,-400.647 354,-406.647 354,-406.647 354,-457.647 354,-457.647 354,-463.647 348,-469.647 342,-469.647 342,-469.647 288,-469.647 288,-469.647 282,-469.647 276,-463.647 276,-457.647 276,-457.647 276,-406.647 276,-406.647 276,-400.647 282,-394.647 288,-394.647"/>
<text text-anchor="middle" x="315" y="-454.447" font-family="Times,serif" font-size="14.00" fill="gray">outputs</text>
</g>
<g id="clust12" class="cluster"><title>cluster&#45;N23</title>
<polygon fill="none" stroke="black" points="65,-249.647 65,-378.647 309,-378.647 309,-249.647 65,-249.647"/>
<text text-anchor="middle" x="187" y="-363.447" font-family="Times,serif" font-size="14.00">BinaryOp</text>
<text text-anchor="middle" x="187" y="-348.447" font-family="Times,serif" font-size="14.00">multiply&#45;23</text>
</g>
<g id="clust13" class="cluster"><title>cluster&#45;N23&#45;inputs</title>
<path fill="none" stroke="gray" d="M171,-257.647C171,-257.647 289,-257.647 289,-257.647 295,-257.647 301,-263.647 301,-269.647 301,-269.647 301,-320.647 301,-320.647 301,-326.647 295,-332.647 289,-332.647 289,-332.647 171,-332.647 171,-332.647 165,-332.647 159,-326.647 159,-320.647 159,-320.647 159,-269.647 159,-269.647 159,-263.647 165,-257.647 171,-257.647"/>
<text text-anchor="middle" x="230" y="-317.447" font-family="Times,serif" font-size="14.00" fill="gray">inputs</text>
</g>
<g id="clust14" class="cluster"><title>cluster&#45;N23&#45;outputs</title>
<path fill="none" stroke="gray" d="M85,-257.647C85,-257.647 139,-257.647 139,-257.647 145,-257.647 151,-263.647 151,-269.647 151,-269.647 151,-320.647 151,-320.647 151,-326.647 145,-332.647 139,-332.647 139,-332.647 85,-332.647 85,-332.647 79,-332.647 73,-326.647 73,-320.647 73,-320.647 73,-269.647 73,-269.647 73,-263.647 79,-257.647 85,-257.647"/>
<text text-anchor="middle" x="112" y="-317.447" font-family="Times,serif" font-size="14.00" fill="gray">outputs</text>
</g>
<g id="clust15" class="cluster"><title>cluster&#45;E16</title>
<polygon fill="none" stroke="black" points="57,-112.647 57,-241.647 167,-241.647 167,-112.647 57,-112.647"/>
<text text-anchor="middle" x="112" y="-226.447" font-family="Times,serif" font-size="14.00">ContainerEnd</text>
<text text-anchor="middle" x="112" y="-211.447" font-family="Times,serif" font-size="14.00">ContainerEnd&#45;16</text>
</g>
<g id="clust16" class="cluster"><title>cluster&#45;E16&#45;inputs</title>
<path fill="none" stroke="gray" d="M85,-120.647C85,-120.647 139,-120.647 139,-120.647 145,-120.647 151,-126.647 151,-132.647 151,-132.647 151,-183.647 151,-183.647 151,-189.647 145,-195.647 139,-195.647 139,-195.647 85,-195.647 85,-195.647 79,-195.647 73,-189.647 73,-183.647 73,-183.647 73,-132.647 73,-132.647 73,-126.647 79,-120.647 85,-120.647"/>
<text text-anchor="middle" x="112" y="-180.447" font-family="Times,serif" font-size="14.00" fill="gray">inputs</text>
</g>
<!-- N18&#45;O&#45;result -->
<g id="node1" class="node"><title>N18&#45;O&#45;result</title>
<ellipse fill="none" stroke="black" cx="232" cy="-569.971" rx="30.5947" ry="18"/>
<text text-anchor="middle" x="232" y="-566.271" font-family="Times,serif" font-size="14.00">result</text>
</g>
<!-- N20&#45;I&#45;left -->
<g id="node4" class="node"><title>N20&#45;I&#45;left</title>
<ellipse fill="none" stroke="black" cx="217" cy="-420.647" rx="27" ry="18"/>
<text text-anchor="middle" x="217" y="-416.947" font-family="Times,serif" font-size="14.00">left</text>
</g>
<!-- N18&#45;O&#45;result&#45;&gt;N20&#45;I&#45;left -->
<g id="edge2" class="edge"><title>N18&#45;O&#45;result&#45;&gt;N20&#45;I&#45;left</title>
<path fill="none" stroke="black" d="M230.25,-551.783C227.676,-526.5 222.843,-479.035 219.78,-448.95"/>
<polygon fill="black" stroke="black" points="223.234,-448.32 218.739,-438.726 216.27,-449.029 223.234,-448.32"/>
</g>
<!-- N19&#45;O&#45;result -->
<g id="node2" class="node"><title>N19&#45;O&#45;result</title>
<ellipse fill="none" stroke="black" cx="130" cy="-569.971" rx="30.5947" ry="18"/>
<text text-anchor="middle" x="130" y="-566.271" font-family="Times,serif" font-size="14.00">result</text>
</g>
<!-- N20&#45;I&#45;right -->
<g id="node3" class="node"><title>N20&#45;I&#45;right</title>
<ellipse fill="none" stroke="black" cx="145" cy="-420.647" rx="27.0966" ry="18"/>
<text text-anchor="middle" x="145" y="-416.947" font-family="Times,serif" font-size="14.00">right</text>
</g>
<!-- N19&#45;O&#45;result&#45;&gt;N20&#45;I&#45;right -->
<g id="edge3" class="edge"><title>N19&#45;O&#45;result&#45;&gt;N20&#45;I&#45;right</title>
<path fill="none" stroke="black" d="M131.75,-551.783C134.324,-526.5 139.157,-479.035 142.22,-448.95"/>
<polygon fill="black" stroke="black" points="145.73,-449.029 143.261,-438.726 138.766,-448.32 145.73,-449.029"/>
</g>
<!-- N20&#45;O&#45;result -->
<g id="node5" class="node"><title>N20&#45;O&#45;result</title>
<ellipse fill="none" stroke="black" cx="63" cy="-420.647" rx="30.5947" ry="18"/>
<text text-anchor="middle" x="63" y="-416.947" font-family="Times,serif" font-size="14.00">result</text>
</g>
<!-- N23&#45;I&#45;left -->
<g id="node9" class="node"><title>N23&#45;I&#45;left</title>
<ellipse fill="none" stroke="black" cx="194" cy="-283.647" rx="27" ry="18"/>
<text text-anchor="middle" x="194" y="-279.947" font-family="Times,serif" font-size="14.00">left</text>
</g>
<!-- N20&#45;O&#45;result&#45;&gt;N23&#45;I&#45;left -->
<g id="edge4" class="edge"><title>N20&#45;O&#45;result&#45;&gt;N23&#45;I&#45;left</title>
<path fill="none" stroke="black" d="M78.5253,-404.722C86.2128,-398.162 95.981,-390.981 106,-386.647 126.253,-377.888 137.7,-392.345 155,-378.647 175.595,-362.342 185.422,-333.272 190.043,-311.763"/>
<polygon fill="black" stroke="black" points="193.488,-312.378 191.917,-301.9 186.611,-311.071 193.488,-312.378"/>
</g>
<!-- N22&#45;I&#45;#bindings -->
<g id="node6" class="node"><title>N22&#45;I&#45;#bindings</title>
<ellipse fill="none" stroke="black" cx="415" cy="-420.647" rx="45.4919" ry="18"/>
<text text-anchor="middle" x="415" y="-416.947" font-family="Times,serif" font-size="14.00">#bindings</text>
</g>
<!-- N22&#45;O&#45;result -->
<g id="node7" class="node"><title>N22&#45;O&#45;result</title>
<ellipse fill="none" stroke="black" cx="315" cy="-420.647" rx="30.5947" ry="18"/>
<text text-anchor="middle" x="315" y="-416.947" font-family="Times,serif" font-size="14.00">result</text>
</g>
<!-- N23&#45;I&#45;right -->
<g id="node8" class="node"><title>N23&#45;I&#45;right</title>
<ellipse fill="none" stroke="black" cx="266" cy="-283.647" rx="27.0966" ry="18"/>
<text text-anchor="middle" x="266" y="-279.947" font-family="Times,serif" font-size="14.00">right</text>
</g>
<!-- N22&#45;O&#45;result&#45;&gt;N23&#45;I&#45;right -->
<g id="edge5" class="edge"><title>N22&#45;O&#45;result&#45;&gt;N23&#45;I&#45;right</title>
<path fill="none" stroke="black" d="M308.893,-402.823C300.522,-379.758 285.398,-338.092 275.53,-310.903"/>
<polygon fill="black" stroke="black" points="278.732,-309.466 272.03,-301.26 272.152,-311.854 278.732,-309.466"/>
</g>
<!-- N23&#45;O&#45;result -->
<g id="node10" class="node"><title>N23&#45;O&#45;result</title>
<ellipse fill="none" stroke="black" cx="112" cy="-283.647" rx="30.5947" ry="18"/>
<text text-anchor="middle" x="112" y="-279.947" font-family="Times,serif" font-size="14.00">result</text>
</g>
<!-- E16&#45;I&#45;result -->
<g id="node11" class="node"><title>E16&#45;I&#45;result</title>
<ellipse fill="none" stroke="black" cx="112" cy="-146.647" rx="30.5947" ry="18"/>
<text text-anchor="middle" x="112" y="-142.947" font-family="Times,serif" font-size="14.00">result</text>
</g>
<!-- N23&#45;O&#45;result&#45;&gt;E16&#45;I&#45;result -->
<g id="edge6" class="edge"><title>N23&#45;O&#45;result&#45;&gt;E16&#45;I&#45;result</title>
<path fill="none" stroke="black" d="M112,-265.55C112,-242.75 112,-202.126 112,-175.033"/>
<polygon fill="black" stroke="black" points="115.5,-175.033 112,-165.033 108.5,-175.033 115.5,-175.033"/>
</g>
<!-- N24&#45;I&#45;source -->
<g id="node13" class="node"><title>N24&#45;I&#45;source</title>
<polygon fill="none" stroke="black" points="188.83,-60.5842 112,-92.4718 35.1703,-60.5842 35.242,-8.98913 188.758,-8.98913 188.83,-60.5842"/>
<text text-anchor="middle" x="112" y="-57.6237" font-family="Times,serif" font-size="14.00">GraphOutput</text>
<text text-anchor="middle" x="112" y="-42.6237" font-family="Times,serif" font-size="14.00">result&#45;24</text>
<text text-anchor="middle" x="112" y="-27.6237" font-family="Times,serif" font-size="14.00">source</text>
</g>
<!-- E16&#45;I&#45;result&#45;&gt;N24&#45;I&#45;source -->
<g id="edge1" class="edge"><title>E16&#45;I&#45;result&#45;&gt;N24&#45;I&#45;source</title>
<path fill="none" stroke="black" d="M112,-128.521C112,-121.167 112,-112.119 112,-102.763"/>
<polygon fill="black" stroke="black" points="115.5,-102.555 112,-92.5555 108.5,-102.556 115.5,-102.555"/>
</g>
<!-- N21&#45;O&#45;result -->
<g id="node12" class="node"><title>N21&#45;O&#45;result</title>
<polygon fill="none" stroke="black" points="491.635,-555.711 553,-523.823 614.365,-555.711 614.308,-607.306 491.692,-607.306 491.635,-555.711"/>
<text text-anchor="middle" x="553" y="-581.271" font-family="Times,serif" font-size="14.00">Binding</text>
<text text-anchor="middle" x="553" y="-566.271" font-family="Times,serif" font-size="14.00">foo&#45;21</text>
<text text-anchor="middle" x="553" y="-551.271" font-family="Times,serif" font-size="14.00">#bindings</text>
</g>
<!-- N21&#45;O&#45;result&#45;&gt;N22&#45;I&#45;#bindings -->
<g id="edge7" class="edge"><title>N21&#45;O&#45;result&#45;&gt;N22&#45;I&#45;#bindings</title>
<path fill="none" stroke="black" d="M524.406,-538.446C498.507,-510.796 460.88,-470.627 437.187,-445.334"/>
<polygon fill="black" stroke="black" points="439.701,-442.898 430.31,-437.992 434.592,-447.683 439.701,-442.898"/>
</g>
</g>
</svg>
