<?xml version="1.0" encoding="UTF-8" standalone="no"?>
<!DOCTYPE svg PUBLIC "-//W3C//DTD SVG 1.1//EN"
 "http://www.w3.org/Graphics/SVG/1.1/DTD/svg11.dtd">
<!-- Generated by graphviz version 2.38.0 (20140413.2041)
 -->
<!-- Title: pg_graph Pages: 1 -->
<svg width="420pt" height="616pt"
 viewBox="0.00 0.00 420.00 616.29" xmlns="http://www.w3.org/2000/svg" xmlns:xlink="http://www.w3.org/1999/xlink">
<g id="graph0" class="graph" transform="scale(1 1) rotate(0) translate(4 612.295)">
<title>pg_graph</title>
<polygon fill="white" stroke="none" points="-4,4 -4,-612.295 416,-612.295 416,4 -4,4"/>
<g id="clust1" class="cluster"><title>cluster&#45;C3</title>
<polygon fill="none" stroke="gray" points="8,-104.647 8,-507.647 404,-507.647 404,-104.647 8,-104.647"/>
<text text-anchor="middle" x="206" y="-492.447" font-family="Times,serif" font-size="14.00">PipelineStart</text>
<text text-anchor="middle" x="206" y="-477.447" font-family="Times,serif" font-size="14.00">PipelineStart&#45;3</text>
</g>
<g id="clust2" class="cluster"><title>cluster&#45;C3&#45;inputs</title>
<path fill="none" stroke="gray" d="M219,-386.647C219,-386.647 279,-386.647 279,-386.647 285,-386.647 291,-392.647 291,-398.647 291,-398.647 291,-449.647 291,-449.647 291,-455.647 285,-461.647 279,-461.647 279,-461.647 219,-461.647 219,-461.647 213,-461.647 207,-455.647 207,-449.647 207,-449.647 207,-398.647 207,-398.647 207,-392.647 213,-386.647 219,-386.647"/>
<text text-anchor="middle" x="249" y="-446.447" font-family="Times,serif" font-size="14.00" fill="gray">inputs</text>
</g>
<g id="clust3" class="cluster"><title>cluster&#45;N4</title>
<polygon fill="none" stroke="black" points="16,-249.647 16,-378.647 202,-378.647 202,-249.647 16,-249.647"/>
<text text-anchor="middle" x="109" y="-363.447" font-family="Times,serif" font-size="14.00">Identity</text>
<text text-anchor="middle" x="109" y="-348.447" font-family="Times,serif" font-size="14.00">Do_Something&#45;4</text>
</g>
<g id="clust4" class="cluster"><title>cluster&#45;N4&#45;inputs</title>
<path fill="none" stroke="gray" d="M122,-257.647C122,-257.647 182,-257.647 182,-257.647 188,-257.647 194,-263.647 194,-269.647 194,-269.647 194,-320.647 194,-320.647 194,-326.647 188,-332.647 182,-332.647 182,-332.647 122,-332.647 122,-332.647 116,-332.647 110,-326.647 110,-320.647 110,-320.647 110,-269.647 110,-269.647 110,-263.647 116,-257.647 122,-257.647"/>
<text text-anchor="middle" x="152" y="-317.447" font-family="Times,serif" font-size="14.00" fill="gray">inputs</text>
</g>
<g id="clust5" class="cluster"><title>cluster&#45;N4&#45;outputs</title>
<path fill="none" stroke="gray" d="M36,-257.647C36,-257.647 90,-257.647 90,-257.647 96,-257.647 102,-263.647 102,-269.647 102,-269.647 102,-320.647 102,-320.647 102,-326.647 96,-332.647 90,-332.647 90,-332.647 36,-332.647 36,-332.647 30,-332.647 24,-326.647 24,-320.647 24,-320.647 24,-269.647 24,-269.647 24,-263.647 30,-257.647 36,-257.647"/>
<text text-anchor="middle" x="63" y="-317.447" font-family="Times,serif" font-size="14.00" fill="gray">outputs</text>
</g>
<g id="clust6" class="cluster"><title>cluster&#45;N5</title>
<polygon fill="none" stroke="black" points="210,-249.647 210,-378.647 396,-378.647 396,-249.647 210,-249.647"/>
<text text-anchor="middle" x="303" y="-363.447" font-family="Times,serif" font-size="14.00">Identity</text>
<text text-anchor="middle" x="303" y="-348.447" font-family="Times,serif" font-size="14.00">Do_Something_Else&#45;5</text>
</g>
<g id="clust7" class="cluster"><title>cluster&#45;N5&#45;inputs</title>
<path fill="none" stroke="gray" d="M316,-257.647C316,-257.647 376,-257.647 376,-257.647 382,-257.647 388,-263.647 388,-269.647 388,-269.647 388,-320.647 388,-320.647 388,-326.647 382,-332.647 376,-332.647 376,-332.647 316,-332.647 316,-332.647 310,-332.647 304,-326.647 304,-320.647 304,-320.647 304,-269.647 304,-269.647 304,-263.647 310,-257.647 316,-257.647"/>
<text text-anchor="middle" x="346" y="-317.447" font-family="Times,serif" font-size="14.00" fill="gray">inputs</text>
</g>
<g id="clust8" class="cluster"><title>cluster&#45;N5&#45;outputs</title>
<path fill="none" stroke="gray" d="M230,-257.647C230,-257.647 284,-257.647 284,-257.647 290,-257.647 296,-263.647 296,-269.647 296,-269.647 296,-320.647 296,-320.647 296,-326.647 290,-332.647 284,-332.647 284,-332.647 230,-332.647 230,-332.647 224,-332.647 218,-326.647 218,-320.647 218,-320.647 218,-269.647 218,-269.647 218,-263.647 224,-257.647 230,-257.647"/>
<text text-anchor="middle" x="257" y="-317.447" font-family="Times,serif" font-size="14.00" fill="gray">outputs</text>
</g>
<g id="clust9" class="cluster"><title>cluster&#45;E2</title>
<polygon fill="none" stroke="black" points="111,-112.647 111,-241.647 214,-241.647 214,-112.647 111,-112.647"/>
<text text-anchor="middle" x="162.5" y="-226.447" font-family="Times,serif" font-size="14.00">ContainerEnd</text>
<text text-anchor="middle" x="162.5" y="-211.447" font-family="Times,serif" font-size="14.00">ContainerEnd&#45;2</text>
</g>
<g id="clust10" class="cluster"><title>cluster&#45;E2&#45;inputs</title>
<path fill="none" stroke="gray" d="M135,-120.647C135,-120.647 189,-120.647 189,-120.647 195,-120.647 201,-126.647 201,-132.647 201,-132.647 201,-183.647 201,-183.647 201,-189.647 195,-195.647 189,-195.647 189,-195.647 135,-195.647 135,-195.647 129,-195.647 123,-189.647 123,-183.647 123,-183.647 123,-132.647 123,-132.647 123,-126.647 129,-120.647 135,-120.647"/>
<text text-anchor="middle" x="162" y="-180.447" font-family="Times,serif" font-size="14.00" fill="gray">inputs</text>
</g>
<!-- C3&#45;I&#45;source -->
<g id="node1" class="node"><title>C3&#45;I&#45;source</title>
<ellipse fill="none" stroke="black" cx="249" cy="-412.647" rx="33.5952" ry="18"/>
<text text-anchor="middle" x="249" y="-408.947" font-family="Times,serif" font-size="14.00">source</text>
</g>
<!-- N4&#45;I&#45;source -->
<g id="node2" class="node"><title>N4&#45;I&#45;source</title>
<ellipse fill="none" stroke="black" cx="152" cy="-283.647" rx="33.5952" ry="18"/>
<text text-anchor="middle" x="152" y="-279.947" font-family="Times,serif" font-size="14.00">source</text>
</g>
<!-- C3&#45;I&#45;source&#45;&gt;N4&#45;I&#45;source -->
<g id="edge1" class="edge"><title>C3&#45;I&#45;source&#45;&gt;N4&#45;I&#45;source</title>
<path fill="none" stroke="black" d="M231.835,-396.942C225.889,-391.475 219.373,-385.041 214,-378.647 195.649,-356.813 178.078,-329.336 166.358,-309.739"/>
<polygon fill="black" stroke="black" points="169.343,-307.911 161.25,-301.074 163.313,-311.466 169.343,-307.911"/>
</g>
<!-- N5&#45;I&#45;source -->
<g id="node4" class="node"><title>N5&#45;I&#45;source</title>
<ellipse fill="none" stroke="black" cx="346" cy="-283.647" rx="33.5952" ry="18"/>
<text text-anchor="middle" x="346" y="-279.947" font-family="Times,serif" font-size="14.00">source</text>
</g>
<!-- C3&#45;I&#45;source&#45;&gt;N5&#45;I&#45;source -->
<g id="edge2" class="edge"><title>C3&#45;I&#45;source&#45;&gt;N5&#45;I&#45;source</title>
<path fill="none" stroke="black" d="M272.848,-399.854C282.182,-394.371 292.44,-387.167 300,-378.647 317.538,-358.884 329.995,-331.239 337.484,-311.046"/>
<polygon fill="black" stroke="black" points="340.817,-312.118 340.855,-301.523 334.218,-309.782 340.817,-312.118"/>
</g>
<!-- N4&#45;O&#45;result -->
<g id="node3" class="node"><title>N4&#45;O&#45;result</title>
<ellipse fill="none" stroke="black" cx="63" cy="-283.647" rx="30.5947" ry="18"/>
<text text-anchor="middle" x="63" y="-279.947" font-family="Times,serif" font-size="14.00">result</text>
</g>
<!-- E2&#45;I&#45;result -->
<g id="node6" class="node"><title>E2&#45;I&#45;result</title>
<ellipse fill="none" stroke="black" cx="162" cy="-146.647" rx="30.5947" ry="18"/>
<text text-anchor="middle" x="162" y="-142.947" font-family="Times,serif" font-size="14.00">result</text>
</g>
<!-- N4&#45;O&#45;result&#45;&gt;E2&#45;I&#45;result -->
<g id="edge4" class="edge"><title>N4&#45;O&#45;result&#45;&gt;E2&#45;I&#45;result</title>
<path fill="none" stroke="black" d="M74.5503,-266.897C91.6716,-243.55 123.931,-199.56 144.12,-172.029"/>
<polygon fill="black" stroke="black" points="147.125,-173.85 150.216,-163.716 141.48,-169.71 147.125,-173.85"/>
</g>
<!-- N5&#45;O&#45;result -->
<g id="node5" class="node"><title>N5&#45;O&#45;result</title>
<ellipse fill="none" stroke="black" cx="257" cy="-283.647" rx="30.5947" ry="18"/>
<text text-anchor="middle" x="257" y="-279.947" font-family="Times,serif" font-size="14.00">result</text>
</g>
<!-- N5&#45;O&#45;result&#45;&gt;E2&#45;I&#45;result -->
<g id="edge5" class="edge"><title>N5&#45;O&#45;result&#45;&gt;E2&#45;I&#45;result</title>
<path fill="none" stroke="black" d="M245.729,-266.631C229.231,-243.186 198.377,-199.341 179.082,-171.921"/>
<polygon fill="black" stroke="black" points="181.873,-169.807 173.256,-163.643 176.149,-173.835 181.873,-169.807"/>
</g>
<!-- N7&#45;I&#45;source -->
<g id="node8" class="node"><title>N7&#45;I&#45;source</title>
<polygon fill="none" stroke="black" points="238.83,-60.5842 162,-92.4718 85.1703,-60.5842 85.242,-8.98913 238.758,-8.98913 238.83,-60.5842"/>
<text text-anchor="middle" x="162" y="-57.6237" font-family="Times,serif" font-size="14.00">GraphOutput</text>
<text text-anchor="middle" x="162" y="-42.6237" font-family="Times,serif" font-size="14.00">result&#45;7</text>
<text text-anchor="middle" x="162" y="-27.6237" font-family="Times,serif" font-size="14.00">source</text>
</g>
<!-- E2&#45;I&#45;result&#45;&gt;N7&#45;I&#45;source -->
<g id="edge3" class="edge"><title>E2&#45;I&#45;result&#45;&gt;N7&#45;I&#45;source</title>
<path fill="none" stroke="black" d="M162,-128.521C162,-121.167 162,-112.119 162,-102.763"/>
<polygon fill="black" stroke="black" points="165.5,-102.555 162,-92.5555 158.5,-102.556 165.5,-102.555"/>
</g>
<!-- N6&#45;O&#45;result -->
<g id="node7" class="node"><title>N6&#45;O&#45;result</title>
<polygon fill="none" stroke="black" points="179.903,-547.711 249,-515.823 318.097,-547.711 318.033,-599.306 179.967,-599.306 179.903,-547.711"/>
<text text-anchor="middle" x="249" y="-573.271" font-family="Times,serif" font-size="14.00">GraphInput</text>
<text text-anchor="middle" x="249" y="-558.271" font-family="Times,serif" font-size="14.00">source&#45;6</text>
<text text-anchor="middle" x="249" y="-543.271" font-family="Times,serif" font-size="14.00">source</text>
</g>
<!-- N6&#45;O&#45;result&#45;&gt;C3&#45;I&#45;source -->
<g id="edge6" class="edge"><title>N6&#45;O&#45;result&#45;&gt;C3&#45;I&#45;source</title>
<path fill="none" stroke="black" d="M249,-515.567C249,-491.088 249,-461.703 249,-440.788"/>
<polygon fill="black" stroke="black" points="252.5,-440.693 249,-430.693 245.5,-440.694 252.5,-440.693"/>
</g>
</g>
</svg>
